<svg id="svg" version="1.1" xmlns="http://www.w3.org/2000/svg" xmlns:xlink="http://www.w3.org/1999/xlink" width="400" height="400" viewBox="0, 0, 400,400"><g id="svgg"><path id="path0" d="M179.600 0.276 C 177.951 0.366,176.430 0.610,176.220 0.820 C 176.011 1.029,174.616 1.200,173.120 1.200 C 171.573 1.200,170.400 1.373,170.400 1.600 C 170.400 1.822,169.341 2.000,168.024 2.000 C 166.717 2.000,165.536 2.180,165.400 2.400 C 165.264 2.620,164.364 2.800,163.400 2.800 C 162.436 2.800,161.536 2.980,161.400 3.200 C 161.264 3.420,160.533 3.600,159.776 3.600 C 159.019 3.600,158.400 3.780,158.400 4.000 C 158.400 4.220,157.678 4.400,156.795 4.400 C 155.912 4.400,154.877 4.558,154.495 4.751 C 153.240 5.385,150.963 6.000,149.872 6.000 C 149.282 6.000,148.800 6.180,148.800 6.400 C 148.800 6.620,148.260 6.800,147.600 6.800 C 146.940 6.800,146.400 6.980,146.400 7.200 C 146.400 7.420,145.781 7.600,145.024 7.600 C 144.267 7.600,143.549 7.759,143.429 7.954 C 143.308 8.148,142.398 8.429,141.405 8.578 C 140.412 8.727,139.600 9.029,139.600 9.248 C 139.600 9.468,139.432 9.544,139.228 9.417 C 139.023 9.291,138.740 9.373,138.600 9.600 C 138.460 9.827,138.178 9.910,137.975 9.784 C 137.771 9.659,136.695 10.013,135.583 10.571 C 134.470 11.130,133.434 11.561,133.280 11.530 C 132.912 11.455,130.301 12.435,128.705 13.247 C 128.323 13.441,127.728 13.600,127.382 13.600 C 127.036 13.600,126.864 13.780,127.000 14.000 C 127.144 14.233,126.737 14.400,126.024 14.400 C 125.351 14.400,124.800 14.580,124.800 14.800 C 124.800 15.020,124.440 15.200,124.000 15.200 C 123.560 15.200,123.200 15.380,123.200 15.600 C 123.200 15.820,122.840 16.000,122.400 16.000 C 121.960 16.000,121.600 16.180,121.600 16.400 C 121.600 16.620,121.240 16.800,120.800 16.800 C 120.360 16.800,120.000 16.980,120.000 17.200 C 120.000 17.420,119.640 17.600,119.200 17.600 C 118.760 17.600,118.400 17.780,118.400 18.000 C 118.400 18.220,118.040 18.400,117.600 18.400 C 117.160 18.400,116.800 18.580,116.800 18.800 C 116.800 19.020,116.440 19.200,116.000 19.200 C 115.560 19.200,115.200 19.346,115.200 19.525 C 115.200 19.704,114.570 20.098,113.800 20.400 C 113.030 20.702,112.400 21.096,112.400 21.275 C 112.400 21.454,111.920 21.600,111.333 21.600 C 110.747 21.600,110.385 21.718,110.530 21.863 C 110.674 22.008,109.894 22.571,108.796 23.114 C 107.698 23.657,106.800 24.259,106.800 24.451 C 106.800 24.643,106.536 24.800,106.214 24.800 C 105.401 24.800,102.800 26.076,102.800 26.474 C 102.800 26.653,102.564 26.800,102.275 26.800 C 101.987 26.800,101.364 27.160,100.892 27.600 C 100.420 28.040,99.756 28.400,99.417 28.400 C 99.078 28.400,98.800 28.589,98.800 28.821 C 98.800 29.052,98.274 29.425,97.632 29.649 C 96.990 29.873,96.361 30.325,96.235 30.653 C 96.109 30.982,95.847 31.153,95.654 31.033 C 95.460 30.914,94.741 31.352,94.055 32.008 C 93.369 32.664,92.665 33.200,92.492 33.200 C 92.319 33.200,91.917 33.560,91.600 34.000 C 91.283 34.440,90.779 34.800,90.480 34.800 C 90.182 34.800,89.246 35.520,88.400 36.400 C 87.554 37.280,86.714 38.000,86.531 38.001 C 86.349 38.001,85.570 38.541,84.800 39.200 C 84.030 39.859,83.241 40.399,83.047 40.399 C 82.852 40.400,82.312 40.814,81.847 41.320 C 81.381 41.826,80.280 42.753,79.400 43.380 C 78.520 44.007,76.450 45.891,74.800 47.568 C 73.150 49.244,71.080 51.151,70.200 51.804 C 68.425 53.121,67.614 53.938,66.055 55.982 C 65.475 56.742,63.698 58.610,62.107 60.132 C 60.516 61.654,59.311 63.057,59.431 63.249 C 59.550 63.442,59.451 63.600,59.211 63.600 C 58.971 63.600,58.661 63.897,58.522 64.259 C 58.383 64.622,57.398 65.831,56.334 66.947 C 55.271 68.062,54.400 69.133,54.400 69.327 C 54.400 69.521,53.866 70.178,53.214 70.787 C 52.562 71.396,52.108 71.975,52.206 72.073 C 52.304 72.170,51.758 72.914,50.993 73.725 C 50.228 74.536,49.736 75.206,49.901 75.213 C 50.065 75.220,49.923 75.445,49.585 75.713 C 49.247 75.981,48.530 76.830,47.991 77.600 C 47.452 78.370,46.739 79.321,46.406 79.713 C 46.073 80.105,45.800 80.559,45.800 80.722 C 45.800 80.885,45.395 81.453,44.900 81.985 C 44.405 82.516,44.000 83.187,44.000 83.475 C 44.000 83.764,43.840 84.000,43.643 84.000 C 43.447 84.000,42.983 84.675,42.612 85.500 C 41.489 87.997,41.025 88.800,40.705 88.800 C 40.537 88.800,40.400 89.160,40.400 89.600 C 40.400 90.040,40.220 90.400,40.000 90.400 C 39.780 90.400,39.600 90.760,39.600 91.200 C 39.600 91.640,39.420 92.000,39.200 92.000 C 38.980 92.000,38.800 92.390,38.800 92.867 C 38.800 93.343,38.689 93.622,38.552 93.486 C 38.197 93.131,37.200 94.226,37.200 94.971 C 37.200 95.317,37.020 95.600,36.800 95.600 C 36.580 95.600,36.400 95.960,36.400 96.400 C 36.400 96.840,36.220 97.200,36.000 97.200 C 35.780 97.200,35.600 97.560,35.600 98.000 C 35.600 98.440,35.462 98.800,35.294 98.800 C 35.126 98.800,34.672 99.475,34.284 100.300 C 33.896 101.125,33.139 102.610,32.601 103.600 C 32.063 104.590,31.617 105.715,31.611 106.100 C 31.605 106.485,31.420 106.800,31.200 106.800 C 30.980 106.800,30.800 107.160,30.800 107.600 C 30.800 108.040,30.620 108.400,30.400 108.400 C 30.180 108.400,30.000 108.760,30.000 109.200 C 30.000 109.640,29.820 110.000,29.600 110.000 C 29.380 110.000,29.200 110.349,29.200 110.776 C 29.200 111.203,29.020 111.664,28.800 111.800 C 28.580 111.936,28.400 112.397,28.400 112.824 C 28.400 113.251,28.209 113.600,27.976 113.600 C 27.743 113.600,27.654 113.764,27.778 113.965 C 27.902 114.165,27.742 114.840,27.422 115.465 C 26.932 116.421,26.614 117.187,26.201 118.400 C 26.164 118.510,25.905 119.140,25.626 119.800 C 25.347 120.460,25.024 121.675,24.907 122.500 C 24.790 123.325,24.538 124.000,24.347 124.000 C 24.156 124.000,24.000 124.439,24.000 124.976 C 24.000 125.513,23.820 126.064,23.600 126.200 C 23.380 126.336,23.200 126.887,23.200 127.424 C 23.200 127.961,23.020 128.400,22.800 128.400 C 22.580 128.400,22.400 129.041,22.400 129.824 C 22.400 130.671,22.238 131.147,22.000 131.000 C 21.762 130.853,21.600 131.321,21.600 132.153 C 21.600 132.923,21.420 133.664,21.200 133.800 C 20.980 133.936,20.800 134.577,20.800 135.224 C 20.800 135.871,20.620 136.400,20.400 136.400 C 20.180 136.400,20.000 137.120,20.000 138.000 C 20.000 138.880,19.820 139.600,19.600 139.600 C 19.380 139.600,19.200 140.320,19.200 141.200 C 19.200 142.080,19.020 142.800,18.800 142.800 C 18.580 142.800,18.400 143.509,18.400 144.376 C 18.400 145.243,18.220 146.064,18.000 146.200 C 17.780 146.336,17.600 147.337,17.600 148.424 C 17.600 149.511,17.420 150.400,17.200 150.400 C 16.980 150.400,16.800 151.289,16.800 152.376 C 16.800 153.463,16.620 154.464,16.400 154.600 C 16.180 154.736,16.000 155.906,16.000 157.200 C 16.000 158.494,15.820 159.664,15.600 159.800 C 15.380 159.936,15.200 161.351,15.200 162.944 C 15.200 164.537,15.030 166.011,14.821 166.220 C 14.216 166.827,13.474 191.875,14.050 192.231 C 14.243 192.350,14.400 194.127,14.400 196.181 C 14.400 199.131,14.526 199.963,15.000 200.145 C 15.390 200.294,15.600 200.916,15.600 201.921 C 15.600 202.771,15.769 204.442,15.975 205.633 C 16.181 206.825,16.548 209.330,16.790 211.200 C 17.201 214.377,17.387 215.488,18.460 221.200 C 19.339 225.880,20.877 232.198,22.028 235.853 C 22.453 237.201,22.800 238.676,22.800 239.129 C 22.800 239.582,22.980 240.064,23.200 240.200 C 23.420 240.336,23.600 240.799,23.600 241.229 C 23.600 241.659,23.769 242.323,23.975 242.705 C 24.182 243.087,24.798 244.757,25.345 246.417 C 28.409 255.709,37.654 275.258,41.614 280.820 C 42.046 281.427,42.400 282.038,42.400 282.179 C 42.400 282.319,42.581 282.651,42.801 282.917 C 43.022 283.183,44.263 285.041,45.558 287.046 C 48.783 292.037,51.643 295.911,57.324 302.989 C 64.941 312.477,76.773 324.028,86.634 331.600 C 93.027 336.509,102.627 342.968,106.599 345.032 C 107.480 345.490,109.010 346.342,110.000 346.926 C 112.592 348.455,124.042 354.029,127.800 355.590 C 129.560 356.322,131.763 357.253,132.696 357.660 C 133.628 358.067,134.633 358.400,134.929 358.400 C 135.225 358.400,135.584 358.518,135.728 358.662 C 136.107 359.040,143.945 361.765,147.600 362.789 C 148.590 363.066,149.850 363.431,150.400 363.600 C 155.666 365.218,166.624 367.567,172.600 368.360 C 174.360 368.594,177.150 368.966,178.800 369.188 C 188.240 370.456,211.760 370.456,221.200 369.188 C 222.850 368.966,225.640 368.591,227.400 368.355 C 231.413 367.816,241.788 365.755,245.400 364.779 C 246.280 364.541,247.630 364.190,248.400 363.999 C 250.972 363.361,254.995 362.192,255.400 361.965 C 255.620 361.842,256.610 361.498,257.600 361.201 C 258.590 360.904,259.571 360.512,259.780 360.330 C 259.989 360.149,260.486 360.000,260.885 360.000 C 261.284 360.000,261.968 359.820,262.405 359.600 C 262.842 359.380,263.558 359.020,263.995 358.800 C 264.432 358.580,265.116 358.400,265.515 358.400 C 265.914 358.400,266.411 358.247,266.620 358.060 C 266.829 357.872,268.260 357.227,269.800 356.626 C 274.503 354.790,288.419 348.155,290.400 346.804 C 290.950 346.429,292.390 345.580,293.600 344.917 C 298.354 342.312,308.185 335.762,312.797 332.125 C 320.457 326.085,327.048 320.176,332.792 314.200 C 336.018 310.843,342.729 303.121,344.800 300.383 C 345.350 299.655,346.536 298.147,347.436 297.030 C 348.335 295.914,350.790 292.480,352.891 289.400 C 356.318 284.376,357.785 282.064,359.999 278.200 C 360.377 277.540,361.158 276.190,361.734 275.200 C 365.657 268.460,374.800 247.954,374.800 245.897 C 374.800 245.587,374.922 245.211,375.071 245.062 C 375.511 244.622,377.178 239.476,377.190 238.524 C 377.195 238.042,377.359 237.549,377.554 237.429 C 377.749 237.308,378.000 236.713,378.112 236.105 C 378.292 235.127,378.785 233.105,379.991 228.400 C 380.668 225.756,381.202 223.270,382.373 217.300 C 382.578 216.255,382.952 213.600,383.205 211.400 C 383.458 209.200,383.830 206.645,384.032 205.723 C 384.235 204.800,384.403 203.270,384.406 202.323 C 384.412 200.768,385.075 198.823,385.266 199.800 C 385.400 200.483,385.978 192.097,386.225 185.878 C 386.408 181.274,386.343 179.809,385.930 179.301 C 385.479 178.744,385.490 178.697,386.000 178.982 C 386.488 179.255,386.507 179.217,386.100 178.779 C 385.749 178.400,385.600 176.547,385.600 172.544 C 385.600 169.177,385.436 166.746,385.200 166.600 C 384.980 166.464,384.800 165.024,384.800 163.400 C 384.800 161.776,384.620 160.336,384.400 160.200 C 384.180 160.064,384.000 158.703,384.000 157.176 C 384.000 155.592,383.828 154.400,383.600 154.400 C 383.380 154.400,383.200 153.511,383.200 152.424 C 383.200 151.337,383.020 150.336,382.800 150.200 C 382.580 150.064,382.400 149.164,382.400 148.200 C 382.400 147.236,382.220 146.336,382.000 146.200 C 381.780 146.064,381.600 145.243,381.600 144.376 C 381.600 143.509,381.420 142.800,381.200 142.800 C 380.980 142.800,380.800 142.080,380.800 141.200 C 380.800 140.320,380.620 139.600,380.400 139.600 C 380.180 139.600,380.000 138.880,380.000 138.000 C 380.000 137.120,379.820 136.400,379.600 136.400 C 379.380 136.400,379.200 135.860,379.200 135.200 C 379.200 134.540,379.020 134.000,378.800 134.000 C 378.580 134.000,378.400 133.280,378.400 132.400 C 378.400 131.520,378.220 130.800,378.000 130.800 C 377.780 130.800,377.600 130.350,377.600 129.800 C 377.600 129.250,377.420 128.800,377.200 128.800 C 376.980 128.800,376.800 128.271,376.800 127.624 C 376.800 126.977,376.620 126.336,376.400 126.200 C 376.180 126.064,376.000 125.513,376.000 124.976 C 376.000 124.439,375.843 124.000,375.652 124.000 C 375.460 124.000,375.189 123.138,375.049 122.086 C 374.909 121.033,374.516 119.773,374.175 119.286 C 373.834 118.798,373.683 118.400,373.839 118.400 C 373.996 118.400,373.826 118.070,373.461 117.668 C 373.097 117.265,372.903 116.830,373.032 116.702 C 373.160 116.573,373.032 116.048,372.748 115.534 C 372.465 115.020,372.278 114.375,372.334 114.100 C 372.389 113.825,372.247 113.600,372.018 113.600 C 371.788 113.600,371.600 113.251,371.600 112.824 C 371.600 112.397,371.420 111.936,371.200 111.800 C 370.980 111.664,370.800 111.203,370.800 110.776 C 370.800 110.349,370.620 110.000,370.400 110.000 C 370.180 110.000,370.000 109.640,370.000 109.200 C 370.000 108.760,369.820 108.400,369.600 108.400 C 369.380 108.400,369.200 108.040,369.200 107.600 C 369.200 107.160,369.020 106.800,368.800 106.800 C 368.580 106.800,368.400 106.531,368.400 106.201 C 368.400 105.664,366.802 102.462,364.452 98.288 C 363.983 97.456,363.600 96.511,363.600 96.188 C 363.600 95.865,363.420 95.600,363.200 95.600 C 362.980 95.600,362.800 95.240,362.800 94.800 C 362.800 94.360,362.620 94.000,362.400 94.000 C 362.180 94.000,362.000 93.770,362.000 93.488 C 362.000 93.207,361.640 92.717,361.200 92.400 C 360.760 92.083,360.400 91.503,360.400 91.112 C 360.400 90.720,360.220 90.400,360.000 90.400 C 359.780 90.400,359.600 90.040,359.600 89.600 C 359.600 89.160,359.453 88.800,359.274 88.800 C 359.094 88.800,358.431 87.720,357.800 86.400 C 357.169 85.080,356.506 84.000,356.326 84.000 C 356.147 84.000,356.000 83.764,356.000 83.475 C 356.000 83.187,355.640 82.564,355.200 82.092 C 354.760 81.620,354.400 81.091,354.400 80.917 C 354.399 80.743,353.934 80.060,353.365 79.400 C 352.796 78.740,352.037 77.705,351.679 77.100 C 351.321 76.495,350.886 76.000,350.714 76.000 C 350.541 76.000,350.400 75.802,350.400 75.560 C 350.400 75.319,349.860 74.617,349.200 74.000 C 348.540 73.383,348.000 72.663,348.000 72.400 C 348.000 72.137,347.460 71.417,346.800 70.800 C 346.140 70.183,345.600 69.499,345.600 69.280 C 345.600 69.061,344.745 68.002,343.700 66.928 C 342.655 65.854,341.545 64.487,341.233 63.889 C 340.922 63.292,339.392 61.587,337.833 60.099 C 336.275 58.612,334.375 56.587,333.611 55.598 C 332.092 53.631,331.302 52.849,329.227 51.255 C 328.471 50.675,326.256 48.606,324.303 46.657 C 322.351 44.708,320.660 43.207,320.546 43.321 C 320.432 43.435,319.838 43.004,319.226 42.364 C 318.614 41.724,317.909 41.200,317.660 41.200 C 317.411 41.200,316.982 40.840,316.707 40.400 C 316.432 39.960,316.053 39.600,315.864 39.600 C 315.675 39.600,315.017 39.060,314.400 38.400 C 313.783 37.740,313.063 37.200,312.800 37.200 C 312.537 37.200,311.817 36.660,311.200 36.000 C 310.583 35.340,309.900 34.800,309.682 34.800 C 309.463 34.800,308.707 34.260,308.000 33.600 C 307.293 32.940,306.454 32.400,306.134 32.400 C 305.814 32.400,305.664 32.220,305.800 32.000 C 305.936 31.780,305.767 31.600,305.424 31.600 C 305.081 31.600,304.800 31.420,304.800 31.200 C 304.800 30.980,304.662 30.845,304.492 30.900 C 304.323 30.955,303.749 30.595,303.217 30.100 C 302.685 29.605,302.028 29.200,301.758 29.200 C 301.488 29.200,301.207 29.065,301.133 28.900 C 300.966 28.524,298.836 27.225,297.900 26.929 C 297.515 26.807,297.200 26.537,297.200 26.330 C 297.200 26.122,297.020 26.064,296.800 26.200 C 296.580 26.336,296.400 26.246,296.400 26.000 C 296.400 25.754,296.220 25.664,296.000 25.800 C 295.780 25.936,295.600 25.846,295.600 25.600 C 295.600 25.354,295.420 25.264,295.200 25.400 C 294.980 25.536,294.800 25.457,294.800 25.224 C 294.800 24.991,294.480 24.800,294.088 24.800 C 293.697 24.800,293.117 24.440,292.800 24.000 C 292.483 23.560,291.937 23.200,291.587 23.200 C 291.237 23.200,290.564 22.840,290.092 22.400 C 289.620 21.960,288.956 21.600,288.617 21.600 C 288.278 21.600,288.000 21.420,288.000 21.200 C 288.000 20.980,287.766 20.800,287.480 20.800 C 286.744 20.800,284.807 19.859,284.803 19.500 C 284.801 19.335,284.440 19.200,284.000 19.200 C 283.560 19.200,283.200 19.020,283.200 18.800 C 283.200 18.580,282.840 18.400,282.400 18.400 C 281.960 18.400,281.600 18.220,281.600 18.000 C 281.600 17.780,281.240 17.600,280.800 17.600 C 280.360 17.600,280.000 17.420,280.000 17.200 C 280.000 16.980,279.766 16.800,279.480 16.800 C 278.744 16.800,276.807 15.859,276.803 15.500 C 276.801 15.335,276.339 15.200,275.776 15.200 C 275.196 15.200,274.860 15.027,275.000 14.800 C 275.140 14.573,274.804 14.400,274.224 14.400 C 273.661 14.400,273.200 14.259,273.200 14.087 C 273.200 13.915,272.345 13.533,271.300 13.238 C 270.255 12.943,268.805 12.363,268.077 11.951 C 267.350 11.538,266.420 11.200,266.010 11.200 C 265.601 11.200,265.207 11.062,265.133 10.894 C 264.996 10.580,260.575 9.036,259.728 9.006 C 259.469 8.997,259.124 8.857,258.962 8.695 C 258.799 8.533,258.257 8.400,257.757 8.400 C 257.257 8.400,256.736 8.220,256.600 8.000 C 256.464 7.780,255.823 7.600,255.176 7.600 C 254.529 7.600,254.000 7.420,254.000 7.200 C 254.000 6.980,253.269 6.800,252.376 6.800 C 251.396 6.800,250.851 6.642,251.000 6.400 C 251.149 6.158,250.604 6.000,249.624 6.000 C 248.731 6.000,248.000 5.820,248.000 5.600 C 248.000 5.380,247.471 5.200,246.824 5.200 C 246.177 5.200,245.536 5.020,245.400 4.800 C 245.264 4.580,244.353 4.400,243.376 4.400 C 242.399 4.400,241.600 4.220,241.600 4.000 C 241.600 3.780,240.981 3.600,240.224 3.600 C 239.467 3.600,238.736 3.420,238.600 3.200 C 238.464 2.980,237.564 2.800,236.600 2.800 C 235.636 2.800,234.736 2.620,234.600 2.400 C 234.464 2.180,233.373 2.000,232.176 2.000 C 230.979 2.000,230.000 1.820,230.000 1.600 C 230.000 1.372,228.811 1.200,227.233 1.200 C 225.409 1.200,224.411 1.033,224.304 0.711 C 224.142 0.227,187.119 -0.134,179.600 0.276 M212.200 49.988 C 219.676 50.599,225.073 51.470,232.400 53.247 C 236.671 54.283,245.152 56.882,247.800 57.966 C 248.240 58.146,249.050 58.473,249.600 58.693 C 252.121 59.701,252.712 59.949,254.400 60.701 C 264.278 65.102,275.992 72.024,282.800 77.485 C 284.010 78.455,285.360 79.533,285.800 79.879 C 291.815 84.615,300.180 92.984,305.311 99.400 C 305.663 99.840,306.741 101.190,307.706 102.400 C 313.580 109.761,320.331 121.119,324.109 130.000 C 324.437 130.770,325.015 132.120,325.393 133.000 C 329.767 143.169,333.152 155.809,334.764 168.000 C 337.537 188.970,334.969 212.083,327.676 231.800 C 325.521 237.624,324.783 239.351,322.119 244.800 C 317.685 253.867,308.808 267.724,305.206 271.200 C 305.092 271.310,303.710 272.930,302.135 274.800 C 291.902 286.953,275.004 299.991,260.200 307.154 C 257.022 308.692,253.224 310.400,252.984 310.400 C 252.878 310.400,252.028 310.740,251.096 311.156 C 248.023 312.525,241.613 314.812,238.600 315.613 C 226.901 318.725,221.673 319.688,210.486 320.794 C 198.676 321.960,181.368 320.630,169.200 317.620 C 158.805 315.049,148.408 311.412,141.200 307.826 C 123.661 299.098,108.624 287.539,97.195 274.000 C 95.988 272.570,94.895 271.310,94.767 271.200 C 93.515 270.124,83.447 255.803,82.675 254.000 C 82.534 253.670,81.877 252.500,81.217 251.400 C 79.643 248.781,75.704 240.684,74.358 237.300 C 74.020 236.449,73.512 235.211,72.761 233.400 C 71.018 229.199,67.658 217.238,66.551 211.290 C 62.762 190.936,63.306 171.853,68.247 151.800 C 72.824 133.223,81.900 115.232,94.683 99.400 C 98.850 94.238,106.680 86.173,111.200 82.384 C 112.630 81.186,113.890 80.113,114.000 80.001 C 114.110 79.890,115.280 78.989,116.600 78.000 C 117.920 77.011,119.090 76.092,119.200 75.958 C 121.179 73.542,140.816 62.470,148.300 59.551 C 148.795 59.358,149.605 59.044,150.100 58.854 C 150.595 58.663,151.450 58.308,152.000 58.066 C 154.338 57.034,162.987 54.408,167.800 53.269 C 183.321 49.596,195.970 48.661,212.200 49.988 " stroke="none" fill="#fceb34" fill-rule="evenodd"></path><path id="path1" d="M201.800 72.038 C 194.541 72.533,187.720 73.568,180.800 75.227 C 179.810 75.464,178.413 75.755,177.696 75.873 C 176.979 75.992,176.294 76.249,176.173 76.444 C 176.052 76.640,175.580 76.800,175.124 76.800 C 172.710 76.800,158.993 82.149,151.200 86.130 C 147.790 87.872,144.596 89.500,144.103 89.748 C 143.610 89.997,143.205 90.335,143.203 90.500 C 143.201 90.665,143.026 90.800,142.813 90.800 C 142.465 90.800,137.979 93.509,137.000 94.311 C 136.780 94.491,135.430 95.428,134.000 96.393 C 121.071 105.114,100.551 127.098,96.282 136.800 C 96.137 137.130,95.479 138.300,94.819 139.400 C 79.977 164.155,73.705 197.669,78.390 227.200 C 79.361 233.322,79.560 234.379,80.386 237.800 C 81.483 242.342,83.585 249.248,85.133 253.400 C 85.790 255.160,86.771 257.799,87.315 259.265 C 87.859 260.731,88.508 262.171,88.759 262.465 C 89.009 262.759,90.275 264.440,91.571 266.200 C 97.418 274.139,104.756 281.968,112.390 288.413 C 113.815 289.616,115.182 290.780,115.427 291.000 C 115.672 291.220,116.397 291.789,117.037 292.265 C 117.676 292.741,119.010 293.740,120.000 294.486 C 125.863 298.901,133.433 303.402,141.400 307.210 C 144.700 308.787,147.713 310.240,148.095 310.439 C 148.477 310.638,148.974 310.800,149.199 310.800 C 149.424 310.800,150.372 311.147,151.304 311.571 C 153.004 312.344,158.627 314.247,162.000 315.190 C 162.990 315.466,164.250 315.837,164.800 316.012 C 165.749 316.316,170.648 317.442,175.000 318.358 C 189.107 321.326,210.573 321.243,226.000 318.159 C 232.812 316.798,244.057 313.628,247.900 311.985 C 249.290 311.391,250.918 310.724,251.800 310.388 C 258.735 307.748,277.814 297.059,279.600 294.813 C 279.710 294.675,280.430 294.129,281.200 293.600 C 281.970 293.071,282.690 292.540,282.800 292.419 C 282.910 292.299,283.810 291.575,284.800 290.812 C 291.381 285.735,300.234 276.780,306.165 269.200 C 307.628 267.330,309.046 265.530,309.317 265.200 C 313.580 259.998,321.928 245.054,325.182 236.800 C 325.919 234.930,326.675 233.229,326.861 233.020 C 327.048 232.811,327.200 232.237,327.200 231.744 C 327.200 231.251,327.380 230.736,327.600 230.600 C 327.820 230.464,328.000 229.924,328.000 229.400 C 328.000 228.876,328.180 228.336,328.400 228.200 C 328.620 228.064,328.800 227.524,328.800 227.000 C 328.800 226.476,328.959 225.949,329.154 225.829 C 329.349 225.708,329.604 225.113,329.721 224.505 C 329.838 223.897,330.141 222.680,330.393 221.800 C 330.645 220.920,331.038 219.390,331.265 218.400 C 331.493 217.410,331.851 215.880,332.062 215.000 C 332.273 214.120,332.606 212.500,332.801 211.400 C 332.997 210.300,333.349 208.320,333.583 207.000 C 335.920 193.868,335.773 176.334,333.203 161.600 C 332.296 156.402,331.557 153.074,330.427 149.100 C 330.192 148.275,329.842 147.015,329.648 146.300 C 329.147 144.449,327.247 138.785,326.730 137.600 C 326.309 136.637,325.941 135.734,325.098 133.600 C 324.472 132.014,322.725 128.620,322.422 128.400 C 322.271 128.290,321.352 127.120,320.381 125.800 C 313.326 116.209,303.208 106.138,292.600 98.149 C 289.018 95.451,283.367 91.600,282.990 91.600 C 282.855 91.600,281.992 91.089,281.072 90.464 C 277.186 87.825,262.905 81.106,258.000 79.610 C 257.010 79.308,256.029 78.912,255.820 78.730 C 255.611 78.549,255.037 78.400,254.544 78.400 C 254.051 78.400,253.549 78.241,253.429 78.046 C 253.308 77.851,252.713 77.596,252.105 77.479 C 251.082 77.282,250.098 77.018,246.400 75.951 C 234.395 72.486,217.271 70.984,201.800 72.038 M14.337 205.500 C 14.303 207.205,14.216 209.050,14.145 209.600 C 13.516 214.430,14.493 231.305,15.985 241.400 C 16.213 242.940,16.511 245.235,16.648 246.500 C 16.784 247.765,17.055 248.800,17.248 248.800 C 17.442 248.800,17.600 249.689,17.600 250.776 C 17.600 251.863,17.761 252.852,17.958 252.974 C 18.294 253.182,18.446 253.901,19.041 258.100 C 19.174 259.035,19.444 259.971,19.641 260.180 C 19.838 260.389,20.000 260.976,20.000 261.485 C 20.000 261.994,20.158 262.723,20.351 263.105 C 20.920 264.233,21.600 266.596,21.600 267.448 C 21.600 267.884,21.749 268.411,21.930 268.620 C 22.112 268.829,22.493 269.810,22.776 270.800 C 23.314 272.681,23.850 274.121,24.447 275.295 C 24.641 275.677,24.800 276.354,24.800 276.800 C 24.800 277.246,25.008 278.013,25.262 278.505 C 26.235 280.387,26.400 280.808,26.400 281.411 C 26.400 281.752,26.787 282.790,27.259 283.716 C 27.732 284.642,28.078 285.486,28.029 285.590 C 27.980 285.695,28.112 285.837,28.322 285.907 C 29.054 286.151,29.180 284.064,29.210 271.152 C 29.242 258.178,29.180 257.474,27.775 254.639 C 27.459 254.000,27.200 253.232,27.200 252.933 C 27.200 252.634,27.041 252.077,26.847 251.695 C 26.652 251.313,26.271 250.460,26.000 249.800 C 25.729 249.140,25.348 248.287,25.153 247.905 C 24.959 247.523,24.800 246.859,24.800 246.429 C 24.800 245.999,24.641 245.549,24.448 245.430 C 24.254 245.310,24.001 244.804,23.886 244.306 C 23.771 243.808,23.284 242.140,22.805 240.600 C 19.530 230.075,16.607 215.919,15.392 204.700 C 15.034 201.395,14.411 201.867,14.337 205.500 M384.787 203.100 C 384.780 203.485,384.599 205.060,384.385 206.600 C 384.172 208.140,383.818 210.862,383.600 212.650 C 382.921 218.203,380.558 229.329,378.809 235.200 C 378.646 235.750,378.331 236.830,378.110 237.600 C 376.887 241.860,376.632 242.634,376.330 242.980 C 376.149 243.189,376.000 243.763,376.000 244.256 C 376.000 244.749,375.820 245.264,375.600 245.400 C 375.380 245.536,375.200 245.999,375.200 246.429 C 375.200 246.859,375.034 247.523,374.832 247.905 C 374.630 248.287,374.072 249.680,373.593 251.000 C 372.567 253.828,372.301 254.501,371.420 256.505 C 370.709 258.120,370.474 282.087,371.138 285.200 L 371.437 286.600 372.118 285.239 C 372.493 284.490,372.800 283.616,372.800 283.297 C 372.800 282.977,373.243 281.835,373.783 280.758 C 374.324 279.681,374.648 278.800,374.503 278.800 C 374.359 278.800,374.456 278.584,374.720 278.320 C 374.984 278.056,375.200 277.437,375.200 276.944 C 375.200 276.451,375.380 275.936,375.600 275.800 C 375.820 275.664,376.000 275.124,376.000 274.600 C 376.000 274.076,376.180 273.536,376.400 273.400 C 376.620 273.264,376.800 272.713,376.800 272.176 C 376.800 271.639,376.980 271.200,377.200 271.200 C 377.420 271.200,377.600 270.469,377.600 269.576 C 377.600 268.596,377.758 268.051,378.000 268.200 C 378.233 268.344,378.400 267.945,378.400 267.247 C 378.400 266.587,378.580 265.936,378.800 265.800 C 379.020 265.664,379.200 265.034,379.200 264.400 C 379.200 263.766,379.380 263.136,379.600 263.000 C 379.820 262.864,380.000 262.234,380.000 261.600 C 380.000 260.966,380.180 260.336,380.400 260.200 C 380.620 260.064,380.800 259.279,380.800 258.456 C 380.800 257.633,380.962 256.789,381.159 256.580 C 381.492 256.227,381.648 255.416,382.253 250.900 C 382.378 249.965,382.642 249.200,382.840 249.200 C 383.038 249.200,383.200 248.417,383.200 247.460 C 383.200 246.503,383.369 245.198,383.576 244.560 C 383.784 243.922,384.061 242.230,384.194 240.800 C 384.327 239.370,384.613 236.850,384.829 235.200 C 385.192 232.441,385.930 220.814,386.074 215.600 C 386.176 211.904,385.505 202.400,385.142 202.400 C 384.954 202.400,384.794 202.715,384.787 203.100 M64.400 325.611 C 64.400 333.030,64.297 339.618,64.170 340.250 C 63.907 341.571,72.952 351.181,78.118 355.070 C 78.754 355.548,79.969 356.583,80.819 357.370 C 81.670 358.156,82.471 358.800,82.601 358.800 C 82.730 358.800,83.256 359.205,83.768 359.700 C 84.933 360.825,85.820 361.543,87.600 362.800 C 88.953 363.755,89.544 364.219,91.285 365.692 C 91.735 366.072,92.260 366.287,92.452 366.168 C 92.643 366.050,92.801 366.098,92.803 366.276 C 92.804 366.454,93.479 367.050,94.303 367.599 C 95.126 368.149,96.010 368.779,96.267 368.999 C 96.523 369.220,97.645 369.940,98.759 370.600 C 99.873 371.260,100.788 371.935,100.792 372.100 C 100.797 372.265,101.057 372.400,101.371 372.400 C 101.686 372.400,102.184 372.642,102.480 372.937 C 103.232 373.689,104.633 374.400,105.364 374.400 C 106.461 374.400,106.497 345.283,105.400 344.939 C 103.370 344.300,85.839 331.950,81.267 327.937 C 80.680 327.421,79.040 326.010,77.622 324.800 C 76.204 323.590,72.649 320.242,69.722 317.361 L 64.400 312.121 64.400 325.611 M330.582 317.124 C 320.927 326.493,310.737 334.828,302.859 339.800 C 302.511 340.020,300.690 341.203,298.813 342.430 C 296.936 343.656,295.083 344.776,294.695 344.919 C 293.518 345.353,293.825 374.146,295.008 374.316 C 295.452 374.379,296.172 374.109,296.608 373.716 C 297.043 373.322,297.895 372.745,298.500 372.432 C 299.105 372.120,299.600 371.715,299.600 371.532 C 299.600 371.350,299.793 371.200,300.030 371.200 C 300.558 371.200,305.734 367.879,306.902 366.791 C 307.369 366.356,307.987 366.000,308.275 366.000 C 308.564 366.000,308.800 365.850,308.800 365.668 C 308.800 365.485,309.294 365.080,309.897 364.768 C 310.500 364.455,311.586 363.615,312.310 362.900 C 313.034 362.185,313.763 361.600,313.930 361.600 C 314.097 361.600,314.860 361.015,315.626 360.300 C 316.392 359.585,317.509 358.745,318.109 358.432 C 318.709 358.120,319.200 357.732,319.200 357.569 C 319.200 357.406,320.325 356.388,321.700 355.307 C 325.645 352.205,336.460 341.218,336.106 340.672 C 335.938 340.412,335.710 333.956,335.600 326.324 L 335.400 312.449 330.582 317.124 M140.800 375.877 C 140.800 391.477,140.814 391.600,142.656 391.600 C 143.149 391.600,143.664 391.780,143.800 392.000 C 143.936 392.220,144.656 392.400,145.400 392.400 C 146.144 392.400,146.864 392.580,147.000 392.800 C 147.136 393.020,147.676 393.200,148.200 393.200 C 148.724 393.200,149.252 393.360,149.373 393.556 C 149.494 393.751,150.269 394.027,151.096 394.167 C 154.749 394.789,155.200 394.907,155.200 395.244 C 155.200 395.440,155.909 395.600,156.776 395.600 C 157.643 395.600,158.464 395.780,158.600 396.000 C 158.736 396.220,159.546 396.400,160.400 396.400 C 161.254 396.400,162.064 396.580,162.200 396.800 C 162.336 397.020,163.337 397.200,164.424 397.200 C 165.511 397.200,166.400 397.380,166.400 397.600 C 166.400 397.820,167.390 398.000,168.600 398.000 C 169.810 398.000,170.800 398.165,170.800 398.366 C 170.800 398.719,171.992 398.871,179.090 399.426 L 182.381 399.684 182.490 384.875 L 182.600 370.067 180.400 369.828 C 166.866 368.361,149.836 364.666,141.500 361.390 C 140.841 361.131,140.800 361.979,140.800 375.877 M258.000 361.587 C 257.421 361.915,254.278 362.939,251.800 363.607 C 242.969 365.987,235.906 367.570,230.400 368.402 C 223.708 369.414,222.493 369.578,220.000 369.805 L 217.400 370.042 217.510 384.821 L 217.619 399.600 220.036 399.600 C 221.365 399.600,222.762 399.434,223.141 399.232 C 223.519 399.029,224.992 398.823,226.414 398.773 C 227.836 398.723,229.180 398.547,229.400 398.382 C 229.620 398.217,230.700 397.986,231.800 397.867 C 234.004 397.631,236.837 397.095,239.600 396.392 C 240.590 396.141,242.076 395.840,242.903 395.725 C 243.729 395.610,244.505 395.355,244.626 395.158 C 244.748 394.961,245.557 394.800,246.424 394.800 C 247.291 394.800,248.000 394.620,248.000 394.400 C 248.000 394.180,248.529 394.000,249.176 394.000 C 249.823 394.000,250.464 393.820,250.600 393.600 C 250.736 393.380,251.377 393.200,252.024 393.200 C 252.671 393.200,253.200 393.020,253.200 392.800 C 253.200 392.580,253.652 392.400,254.205 392.400 C 254.758 392.400,255.523 392.241,255.905 392.047 C 256.287 391.853,257.140 391.534,257.800 391.338 L 259.000 390.981 259.105 376.090 C 259.163 367.901,259.073 361.211,258.905 361.224 C 258.737 361.236,258.330 361.400,258.000 361.587 " stroke="none" fill="#fcb343" fill-rule="evenodd"></path><path id="path2" d="M194.000 50.249 C 184.637 50.656,171.085 52.762,164.547 54.826 C 163.199 55.252,161.724 55.600,161.271 55.600 C 160.818 55.600,160.336 55.780,160.200 56.000 C 160.064 56.220,159.524 56.400,159.000 56.400 C 158.476 56.400,157.936 56.580,157.800 56.800 C 157.664 57.020,157.124 57.200,156.600 57.200 C 156.076 57.200,155.536 57.380,155.400 57.600 C 155.264 57.820,154.801 58.000,154.371 58.000 C 153.616 58.000,153.226 58.144,151.305 59.138 C 150.813 59.392,150.138 59.600,149.805 59.600 C 149.472 59.600,149.200 59.780,149.200 60.000 C 149.200 60.220,148.865 60.400,148.456 60.400 C 147.727 60.400,146.255 61.072,139.000 64.715 C 134.441 67.005,127.257 71.059,126.800 71.601 C 126.690 71.732,125.758 72.325,124.728 72.919 C 123.699 73.514,122.619 74.231,122.328 74.513 C 122.038 74.796,121.170 75.468,120.400 76.007 C 119.630 76.547,118.730 77.206,118.400 77.471 C 118.070 77.736,116.270 79.170,114.400 80.656 C 102.551 90.074,90.132 104.888,81.921 119.400 C 80.407 122.075,75.558 132.157,74.803 134.200 C 74.413 135.254,73.808 136.763,73.280 138.000 C 70.300 144.975,67.319 157.599,65.631 170.400 C 64.300 180.490,64.896 197.866,66.970 209.400 C 68.127 215.831,70.747 226.169,71.608 227.695 C 71.824 228.077,72.000 228.741,72.000 229.171 C 72.000 229.601,72.180 230.064,72.400 230.200 C 72.620 230.336,72.800 230.799,72.800 231.229 C 72.800 231.659,72.959 232.323,73.153 232.705 C 73.509 233.405,74.108 234.834,74.743 236.500 C 74.932 236.995,75.472 238.182,75.943 239.138 C 76.414 240.094,76.800 241.129,76.800 241.438 C 76.800 241.747,76.980 242.000,77.200 242.000 C 77.420 242.000,77.600 242.251,77.600 242.557 C 77.600 243.078,81.306 250.520,82.003 251.400 C 82.178 251.620,82.838 252.700,83.471 253.800 C 85.597 257.497,86.198 258.395,86.549 258.397 C 86.741 258.399,86.726 258.175,86.517 257.900 C 86.307 257.625,85.734 256.230,85.243 254.800 C 84.753 253.370,84.194 251.840,84.002 251.400 C 83.810 250.960,83.465 249.970,83.235 249.200 C 83.006 248.430,82.471 246.720,82.048 245.400 C 74.889 223.079,74.720 192.041,81.634 169.400 C 83.335 163.830,84.927 159.287,86.400 155.800 C 86.679 155.140,87.048 154.240,87.221 153.800 C 88.176 151.367,92.991 141.671,94.380 139.385 C 95.271 137.918,96.000 136.640,96.000 136.544 C 96.000 135.995,101.736 127.890,106.448 121.783 C 111.132 115.711,122.419 104.505,127.987 100.400 C 128.732 99.850,129.806 99.029,130.371 98.576 C 139.556 91.217,155.185 82.966,168.800 78.288 C 185.570 72.525,208.745 69.860,225.200 71.803 C 238.802 73.410,253.598 76.960,261.845 80.596 C 262.700 80.973,263.760 81.425,264.200 81.600 C 284.856 89.822,309.180 108.858,320.922 125.989 C 322.190 127.839,321.606 126.102,319.763 122.546 C 317.019 117.247,312.127 109.242,310.165 106.838 C 309.879 106.487,308.785 105.030,307.735 103.600 C 306.684 102.170,305.729 100.910,305.612 100.800 C 305.496 100.690,304.506 99.520,303.413 98.200 C 299.323 93.259,292.078 86.017,287.000 81.796 C 285.680 80.698,284.510 79.704,284.400 79.588 C 284.290 79.471,283.030 78.516,281.600 77.465 C 280.170 76.415,278.726 75.332,278.391 75.060 C 273.951 71.444,257.528 62.417,251.000 60.003 C 249.776 59.550,247.879 58.747,247.105 58.353 C 246.723 58.159,246.059 58.000,245.629 58.000 C 245.199 58.000,244.736 57.820,244.600 57.600 C 244.464 57.380,243.924 57.200,243.400 57.200 C 242.876 57.200,242.336 57.020,242.200 56.800 C 242.064 56.580,241.601 56.400,241.171 56.400 C 240.741 56.400,240.077 56.238,239.695 56.039 C 239.069 55.714,238.081 55.414,234.200 54.369 C 223.403 51.462,206.330 49.712,194.000 50.249 M29.600 273.311 C 29.600 283.655,29.483 286.798,29.073 287.411 C 28.622 288.087,28.673 288.448,29.430 289.931 C 29.961 290.972,30.397 291.450,30.525 291.131 C 30.641 290.839,30.751 291.185,30.768 291.900 C 30.786 292.615,30.980 293.200,31.200 293.200 C 31.420 293.200,31.600 293.650,31.600 294.200 C 31.600 294.750,31.780 295.200,32.000 295.200 C 32.220 295.200,32.400 295.548,32.400 295.973 C 32.400 296.398,32.760 296.860,33.200 297.000 C 33.777 297.183,34.002 297.608,34.006 298.527 C 34.011 299.496,34.105 299.657,34.400 299.200 C 34.694 298.745,34.789 298.914,34.794 299.900 C 34.797 300.615,34.936 301.200,35.102 301.200 C 35.269 301.200,35.644 301.741,35.937 302.402 C 36.230 303.064,36.634 303.503,36.835 303.379 C 37.036 303.254,37.200 303.328,37.200 303.543 C 37.200 303.758,36.975 304.024,36.700 304.135 C 36.300 304.296,36.300 304.343,36.700 304.368 C 36.975 304.386,37.200 304.760,37.200 305.200 C 37.200 305.640,37.380 306.000,37.600 306.000 C 37.820 306.000,38.000 306.188,38.000 306.417 C 38.000 306.646,38.360 307.220,38.800 307.692 C 39.240 308.164,39.600 308.787,39.600 309.075 C 39.600 309.364,39.780 309.600,40.000 309.600 C 40.220 309.600,40.400 309.960,40.400 310.400 C 40.400 310.947,40.667 311.200,41.243 311.200 C 41.808 311.200,42.014 311.388,41.867 311.771 C 41.746 312.085,41.915 312.564,42.242 312.835 C 42.569 313.106,42.744 313.569,42.631 313.864 C 42.518 314.159,42.610 314.400,42.836 314.400 C 43.062 314.400,43.136 314.580,43.000 314.800 C 42.864 315.020,42.945 315.200,43.180 315.200 C 43.414 315.200,43.895 315.920,44.247 316.800 C 44.599 317.680,45.047 318.400,45.243 318.400 C 45.440 318.400,45.600 318.676,45.600 319.013 C 45.600 319.350,46.005 319.789,46.500 319.988 C 47.031 320.201,47.154 320.365,46.800 320.387 C 46.326 320.416,46.349 320.511,46.908 320.837 C 47.298 321.064,47.494 321.463,47.344 321.725 C 47.194 321.986,47.206 322.080,47.370 321.933 C 47.712 321.626,49.200 322.786,49.200 323.360 C 49.200 323.571,49.853 324.341,50.650 325.072 C 51.448 325.802,51.870 326.400,51.589 326.400 C 51.308 326.400,51.493 326.760,52.000 327.200 C 52.507 327.640,52.702 328.000,52.433 328.000 C 52.095 328.000,52.130 328.187,52.543 328.600 C 52.873 328.930,53.426 329.200,53.771 329.200 C 54.327 329.200,54.611 329.941,54.436 330.934 C 54.404 331.118,54.757 331.368,55.222 331.490 C 55.864 331.658,55.939 331.793,55.534 332.049 C 55.159 332.287,55.298 332.391,56.000 332.400 C 56.793 332.410,56.876 332.492,56.400 332.800 C 55.921 333.109,55.996 333.189,56.767 333.194 C 57.298 333.197,57.619 333.314,57.480 333.454 C 57.340 333.593,57.578 334.154,58.008 334.701 C 58.437 335.247,58.691 335.853,58.571 336.047 C 58.451 336.241,58.768 336.414,59.276 336.432 C 59.784 336.449,59.986 336.550,59.725 336.656 C 59.386 336.795,59.434 337.064,59.897 337.604 C 60.252 338.019,60.695 338.265,60.881 338.150 C 61.067 338.035,61.194 338.089,61.163 338.270 C 61.030 339.031,61.228 339.600,61.624 339.600 C 61.857 339.600,61.919 339.392,61.762 339.138 C 61.589 338.859,61.652 338.785,61.921 338.951 C 62.165 339.102,62.252 339.521,62.113 339.882 C 61.920 340.385,62.026 340.476,62.563 340.269 C 62.949 340.121,63.431 340.000,63.633 340.000 C 63.849 340.000,64.000 334.180,64.000 325.859 L 64.000 311.719 62.900 310.552 C 62.295 309.911,60.990 308.400,60.000 307.194 C 59.010 305.989,57.840 304.628,57.400 304.171 C 56.960 303.713,56.150 302.735,55.600 301.998 C 54.464 300.475,52.720 298.299,52.396 298.000 C 52.277 297.890,51.194 296.397,49.990 294.681 C 48.785 292.966,47.395 291.076,46.900 290.481 C 46.406 289.887,46.001 289.257,46.000 289.083 C 46.000 288.909,45.640 288.380,45.200 287.908 C 44.760 287.436,44.400 286.813,44.400 286.525 C 44.400 286.236,44.220 286.000,44.000 286.000 C 43.780 286.000,43.600 285.807,43.600 285.572 C 43.600 285.337,43.082 284.391,42.448 283.470 C 41.372 281.905,40.925 281.159,38.757 277.300 C 38.294 276.475,37.770 275.620,37.593 275.400 C 37.206 274.919,32.026 264.580,30.829 261.900 C 30.362 260.855,29.895 260.000,29.790 260.000 C 29.686 260.000,29.600 265.990,29.600 273.311 M369.453 261.400 C 366.410 267.917,362.094 276.347,361.568 276.800 C 361.440 276.910,361.081 277.585,360.770 278.300 C 360.459 279.015,360.069 279.600,359.902 279.600 C 359.736 279.600,359.600 279.790,359.600 280.022 C 359.600 280.254,358.920 281.469,358.089 282.722 C 357.258 283.975,356.352 285.450,356.074 286.000 C 354.889 288.350,344.367 302.519,342.410 304.400 C 342.066 304.730,340.982 305.990,340.000 307.200 C 339.018 308.410,337.924 309.670,337.570 310.000 C 336.066 311.400,336.000 312.077,336.000 326.131 C 336.000 338.331,336.073 339.942,336.633 340.157 C 337.627 340.539,338.271 340.434,337.600 340.000 C 337.164 339.718,337.143 339.611,337.524 339.606 C 337.812 339.603,337.937 339.422,337.803 339.205 C 337.667 338.986,337.812 338.907,338.128 339.028 C 338.790 339.282,340.115 338.110,339.780 337.568 C 339.655 337.365,339.844 337.200,340.200 337.200 C 340.556 337.200,340.748 337.039,340.626 336.842 C 340.504 336.645,340.674 336.381,341.002 336.254 C 341.331 336.128,341.600 335.559,341.600 334.989 C 341.600 334.400,341.773 334.059,342.000 334.200 C 342.220 334.336,342.400 334.244,342.400 333.995 C 342.400 333.746,342.670 333.273,343.000 332.943 C 343.413 332.530,343.600 332.495,343.600 332.833 C 343.600 333.102,343.960 332.907,344.400 332.400 C 344.840 331.893,345.200 331.229,345.200 330.926 C 345.200 330.623,345.485 330.265,345.834 330.132 C 346.300 329.953,346.339 329.809,345.981 329.588 C 345.646 329.381,345.760 329.203,346.347 329.017 C 346.816 328.868,347.203 328.443,347.206 328.073 C 347.211 327.492,347.265 327.482,347.600 328.000 C 347.901 328.466,347.989 328.351,347.994 327.482 C 348.001 326.237,349.802 324.079,350.139 324.911 C 350.266 325.226,350.348 325.183,350.368 324.788 C 350.386 324.452,350.760 323.917,351.200 323.600 C 351.640 323.283,352.003 322.568,352.006 322.012 C 352.011 321.212,352.093 321.126,352.400 321.600 C 352.731 322.113,352.789 322.098,352.794 321.500 C 352.797 321.115,352.937 320.800,353.104 320.800 C 353.809 320.800,354.497 319.108,353.937 318.753 C 353.549 318.507,353.650 318.411,354.300 318.406 C 354.795 318.403,355.200 318.207,355.200 317.972 C 355.200 317.737,355.714 316.792,356.343 315.872 C 356.972 314.952,357.438 313.885,357.379 313.500 C 357.319 313.115,357.506 312.800,357.793 312.800 C 358.080 312.800,358.422 312.521,358.553 312.179 C 358.689 311.823,358.622 311.663,358.395 311.803 C 358.178 311.937,358.000 311.857,358.000 311.624 C 358.000 311.391,358.360 311.200,358.800 311.200 C 359.407 311.200,359.600 310.933,359.600 310.096 C 359.600 309.426,359.914 308.796,360.400 308.493 C 360.840 308.218,361.200 307.635,361.200 307.197 C 361.200 306.758,361.380 306.400,361.600 306.400 C 361.820 306.400,362.003 305.905,362.006 305.300 C 362.010 304.683,362.141 304.400,362.306 304.656 C 362.519 304.986,362.742 304.958,363.116 304.556 C 363.413 304.235,363.455 304.000,363.216 304.000 C 362.987 304.000,362.800 303.809,362.800 303.576 C 362.800 303.343,362.935 303.235,363.100 303.334 C 363.265 303.434,363.632 303.265,363.916 302.958 C 364.295 302.548,364.305 302.400,363.955 302.400 C 363.692 302.400,363.865 302.064,364.339 301.653 C 364.812 301.242,365.200 300.612,365.200 300.253 C 365.200 299.894,365.380 299.600,365.600 299.600 C 365.820 299.600,366.000 299.072,366.000 298.427 C 366.000 297.605,366.240 297.178,366.800 297.000 C 367.240 296.860,367.597 296.443,367.594 296.073 C 367.589 295.488,367.532 295.478,367.163 296.000 C 366.786 296.533,366.765 296.533,366.969 296.000 C 367.096 295.670,367.311 295.085,367.446 294.700 C 367.582 294.315,367.852 294.000,368.047 294.000 C 368.241 294.000,368.400 293.706,368.400 293.347 C 368.400 292.988,368.723 292.403,369.117 292.047 C 370.089 291.170,371.207 288.730,370.872 288.216 C 370.722 287.987,370.510 281.500,370.400 273.800 L 370.200 259.800 369.453 261.400 M67.600 345.829 C 67.600 346.253,68.836 347.297,69.067 347.067 C 69.192 346.941,69.017 346.560,68.676 346.219 C 68.041 345.584,67.600 345.424,67.600 345.829 M106.400 359.764 C 106.400 367.558,106.291 374.219,106.157 374.567 C 105.980 375.030,106.168 375.208,106.857 375.232 C 107.376 375.249,107.577 375.353,107.304 375.464 C 106.513 375.783,107.761 376.800,108.944 376.800 C 109.595 376.800,110.035 377.081,110.200 377.600 C 110.340 378.040,110.632 378.400,110.851 378.400 C 111.069 378.400,111.136 378.220,111.000 378.000 C 110.864 377.780,110.924 377.600,111.134 377.600 C 111.343 377.600,111.617 377.867,111.742 378.193 C 111.885 378.565,112.237 378.691,112.685 378.530 C 113.078 378.388,113.274 378.413,113.119 378.584 C 112.752 378.991,113.770 380.000,114.548 380.000 C 114.881 380.000,115.264 380.180,115.400 380.400 C 115.536 380.620,116.087 380.800,116.624 380.800 C 117.161 380.800,117.600 380.980,117.600 381.200 C 117.600 381.420,118.050 381.600,118.600 381.600 C 119.150 381.600,119.600 381.780,119.600 382.000 C 119.600 382.220,119.870 382.400,120.200 382.400 C 120.530 382.400,120.800 382.580,120.800 382.800 C 120.800 383.020,121.081 383.200,121.424 383.200 C 121.767 383.200,121.936 383.380,121.800 383.600 C 121.656 383.833,122.055 384.000,122.754 384.000 C 123.545 384.000,124.171 384.307,124.589 384.900 C 125.061 385.571,125.303 385.670,125.541 385.291 C 125.783 384.903,126.036 384.977,126.600 385.600 C 127.165 386.225,127.418 386.298,127.664 385.909 C 127.918 385.510,127.989 385.508,127.994 385.900 C 127.997 386.175,128.315 386.403,128.700 386.406 C 129.298 386.411,129.313 386.469,128.800 386.800 C 128.281 387.135,128.290 387.189,128.867 387.194 C 129.233 387.197,129.624 386.975,129.735 386.700 C 129.896 386.300,129.943 386.300,129.968 386.700 C 129.986 386.975,130.281 387.200,130.624 387.200 C 130.967 387.200,131.136 387.380,131.000 387.600 C 130.853 387.838,131.329 388.000,132.176 388.000 C 132.959 388.000,133.600 388.180,133.600 388.400 C 133.600 388.620,133.735 388.779,133.900 388.753 C 135.118 388.560,136.163 388.872,135.400 389.200 C 134.686 389.507,134.715 389.547,135.676 389.572 C 136.268 389.587,136.875 389.797,137.023 390.038 C 137.172 390.278,137.717 390.394,138.235 390.295 C 138.752 390.197,139.081 390.270,138.964 390.458 C 138.848 390.646,138.810 390.800,138.879 390.800 C 138.948 390.800,139.634 390.974,140.403 391.187 C 141.520 391.497,141.680 391.477,141.200 391.087 C 140.683 390.667,140.616 388.626,140.714 376.329 L 140.829 362.058 139.939 361.229 C 139.450 360.773,138.721 360.400,138.319 360.400 C 137.918 360.400,137.277 360.241,136.895 360.047 C 136.001 359.592,134.773 359.093,131.800 357.977 C 130.480 357.481,129.229 356.923,129.020 356.738 C 128.811 356.552,128.395 356.400,128.095 356.400 C 127.026 356.400,109.416 347.816,108.400 346.800 C 108.290 346.690,107.795 346.373,107.300 346.097 L 106.400 345.593 106.400 359.764 M292.138 346.559 C 290.806 347.474,279.341 353.285,275.600 354.941 C 271.806 356.619,268.804 357.886,267.400 358.400 C 266.206 358.837,264.292 359.647,263.505 360.047 C 263.123 360.241,262.547 360.400,262.224 360.400 C 261.902 360.400,261.179 360.609,260.619 360.864 L 259.600 361.328 259.600 376.041 C 259.600 389.526,259.776 392.133,260.596 390.807 C 260.734 390.583,261.276 390.400,261.800 390.400 C 262.324 390.400,262.863 390.222,262.997 390.005 C 263.140 389.773,262.943 389.706,262.521 389.842 C 261.967 390.022,261.928 389.984,262.354 389.681 C 262.658 389.464,263.468 389.365,264.154 389.460 C 265.095 389.591,265.253 389.533,264.800 389.223 C 264.320 388.894,264.413 388.811,265.267 388.806 C 265.853 388.803,266.424 388.575,266.535 388.300 C 266.696 387.900,266.743 387.900,266.768 388.300 C 266.786 388.575,266.999 388.800,267.243 388.800 C 267.486 388.800,267.583 388.532,267.457 388.205 C 267.332 387.877,267.357 387.636,267.514 387.668 C 267.859 387.739,269.122 387.292,270.154 386.734 C 270.694 386.442,270.993 386.465,271.210 386.816 C 271.420 387.156,271.595 387.045,271.783 386.453 C 271.932 385.984,272.232 385.600,272.451 385.600 C 272.669 385.600,272.736 385.780,272.600 386.000 C 272.237 386.588,272.770 386.487,273.410 385.848 C 273.713 385.544,273.850 385.184,273.714 385.048 C 273.578 384.911,274.177 384.800,275.045 384.800 C 276.165 384.800,276.791 384.567,277.200 384.000 C 277.517 383.560,278.211 383.200,278.741 383.200 C 279.272 383.200,279.999 382.885,280.357 382.500 C 281.205 381.589,282.625 380.800,283.418 380.800 C 283.764 380.800,283.936 380.620,283.800 380.400 C 283.664 380.180,283.887 380.000,284.296 380.000 C 284.705 380.000,285.211 379.836,285.420 379.635 C 285.629 379.434,286.250 379.209,286.800 379.135 C 287.350 379.061,288.115 378.657,288.500 378.239 C 289.008 377.687,289.202 377.632,289.206 378.039 C 289.211 378.507,289.273 378.503,289.580 378.019 C 289.782 377.700,289.858 377.295,289.750 377.119 C 289.642 376.944,290.150 376.800,290.880 376.800 C 291.774 376.800,292.371 376.539,292.707 376.000 C 292.982 375.560,293.486 375.200,293.827 375.200 C 294.168 375.200,294.338 375.023,294.204 374.807 C 294.071 374.591,293.970 368.156,293.980 360.507 C 294.000 345.286,293.999 345.279,292.138 346.559 M330.797 346.803 C 330.288 347.244,329.953 347.687,330.053 347.786 C 330.153 347.886,330.750 347.525,331.379 346.984 C 332.009 346.443,332.344 346.000,332.123 346.000 C 331.903 346.000,331.306 346.361,330.797 346.803 M313.212 361.984 C 312.888 362.189,312.744 362.478,312.893 362.626 C 313.041 362.774,313.453 362.604,313.810 362.248 C 314.513 361.544,314.157 361.387,313.212 361.984 M183.090 370.643 C 182.931 370.803,182.800 377.360,182.800 385.215 L 182.800 399.497 187.264 399.786 C 189.720 399.946,197.505 400.014,204.564 399.938 L 217.400 399.800 217.290 385.063 L 217.181 370.326 211.490 370.663 C 204.318 371.088,196.203 371.092,188.990 370.676 C 185.905 370.499,183.250 370.484,183.090 370.643 " stroke="none" fill="#f4941c" fill-rule="evenodd"></path><path id="path3" d="M193.200 49.585 C 191.990 49.725,195.050 49.843,200.000 49.846 C 205.477 49.850,208.061 49.742,206.600 49.570 C 203.690 49.227,196.221 49.235,193.200 49.585 M183.200 50.400 C 181.112 50.839,183.546 50.857,186.000 50.420 L 187.800 50.100 186.200 50.103 C 185.320 50.104,183.970 50.238,183.200 50.400 M214.000 50.420 C 216.550 50.874,218.821 50.836,216.600 50.377 C 215.720 50.195,214.370 50.058,213.600 50.073 C 212.295 50.098,212.322 50.122,214.000 50.420 M177.600 51.200 L 176.600 51.520 177.600 51.513 C 178.150 51.509,179.140 51.368,179.800 51.200 L 181.000 50.895 179.800 50.887 C 179.140 50.883,178.150 51.024,177.600 51.200 M220.200 51.200 C 220.860 51.368,221.850 51.509,222.400 51.513 L 223.400 51.520 222.400 51.200 C 221.850 51.024,220.860 50.883,220.200 50.887 L 219.000 50.895 220.200 51.200 M173.200 52.000 C 171.850 52.284,171.843 52.295,173.000 52.300 C 173.660 52.303,174.740 52.168,175.400 52.000 C 177.060 51.578,175.207 51.578,173.200 52.000 M225.000 52.000 C 225.660 52.168,226.650 52.305,227.200 52.305 C 228.092 52.305,228.070 52.272,227.000 52.000 C 226.340 51.832,225.350 51.695,224.800 51.695 C 223.908 51.695,223.930 51.728,225.000 52.000 M169.600 52.800 L 168.600 53.120 169.600 53.154 C 170.150 53.173,170.870 53.013,171.200 52.800 C 171.964 52.306,171.142 52.306,169.600 52.800 M228.433 52.558 C 228.525 52.645,230.580 53.202,233.000 53.794 C 235.420 54.387,239.731 55.660,242.581 56.622 C 245.430 57.585,247.841 58.293,247.938 58.196 C 248.035 58.098,247.864 57.935,247.557 57.831 C 237.187 54.344,227.502 51.674,228.433 52.558 M166.200 53.600 C 165.111 53.877,165.093 53.907,166.000 53.925 C 166.550 53.935,167.360 53.789,167.800 53.600 C 168.786 53.176,167.866 53.176,166.200 53.600 M163.800 54.194 C 163.580 54.266,160.970 55.091,158.000 56.028 C 155.030 56.964,152.420 57.908,152.200 58.124 C 151.937 58.383,152.073 58.419,152.600 58.229 C 153.040 58.070,155.650 57.219,158.400 56.337 C 163.591 54.673,165.283 54.051,164.600 54.059 C 164.380 54.061,164.020 54.122,163.800 54.194 M138.670 63.879 C 138.048 64.205,137.626 64.560,137.733 64.666 C 137.942 64.876,140.400 63.700,140.400 63.390 C 140.400 63.092,139.894 63.235,138.670 63.879 M134.300 66.229 C 133.695 66.557,133.200 66.910,133.200 67.013 C 133.200 67.399,133.832 67.157,134.800 66.400 C 135.989 65.470,135.811 65.409,134.300 66.229 M264.400 65.779 C 264.400 65.889,264.940 66.259,265.600 66.600 C 266.260 66.941,266.800 67.131,266.800 67.021 C 266.800 66.911,266.260 66.541,265.600 66.200 C 264.940 65.859,264.400 65.669,264.400 65.779 M131.400 68.000 C 130.740 68.437,130.380 68.792,130.600 68.788 C 131.001 68.782,133.176 67.223,132.800 67.212 C 132.690 67.208,132.060 67.563,131.400 68.000 M268.000 67.967 C 268.963 68.752,269.600 69.008,269.600 68.610 C 269.600 68.506,269.015 68.135,268.300 67.786 L 267.000 67.152 268.000 67.967 M124.505 72.301 C 121.592 74.225,119.207 75.919,119.205 76.064 C 119.201 76.298,128.835 69.993,129.780 69.142 C 130.781 68.241,129.364 69.089,124.505 72.301 M270.000 68.945 C 270.000 69.040,271.755 70.254,273.900 71.642 C 276.045 73.030,279.645 75.567,281.900 77.279 C 284.155 78.991,285.990 80.259,285.977 80.096 C 285.924 79.394,270.000 68.281,270.000 68.945 M116.324 78.115 C 115.072 79.042,114.037 79.947,114.024 80.127 C 114.011 80.306,115.080 79.605,116.400 78.568 C 118.485 76.930,119.097 76.357,118.700 76.415 C 118.645 76.423,117.576 77.188,116.324 78.115 M111.002 82.514 C 107.555 85.512,101.575 91.308,101.750 91.483 C 101.831 91.565,103.054 90.499,104.466 89.116 C 105.878 87.732,108.556 85.213,110.417 83.517 C 114.246 80.028,114.642 79.348,111.002 82.514 M289.200 83.054 C 293.177 86.695,298.783 92.294,302.161 96.000 C 304.839 98.938,304.852 98.946,302.782 96.400 C 300.162 93.177,291.360 84.395,288.400 82.050 C 286.767 80.756,286.973 81.015,289.200 83.054 M100.200 92.930 C 99.760 93.415,98.411 94.979,97.202 96.406 C 95.994 97.833,94.914 99.090,94.802 99.200 C 94.691 99.310,94.341 99.760,94.023 100.200 L 93.447 101.000 94.269 100.200 C 96.049 98.470,101.631 92.001,101.325 92.024 C 101.146 92.038,100.640 92.445,100.200 92.930 M91.912 102.900 C 88.935 106.557,81.788 117.522,82.147 117.881 C 82.254 117.987,82.652 117.473,83.031 116.737 C 83.956 114.945,89.694 106.370,91.888 103.500 C 93.930 100.830,93.947 100.401,91.912 102.900 M308.113 103.400 C 310.280 106.326,315.835 114.697,317.337 117.300 C 317.940 118.345,318.533 119.200,318.655 119.200 C 319.291 119.200,310.150 105.263,307.767 102.600 C 306.598 101.293,306.661 101.439,308.113 103.400 M81.014 119.435 C 80.641 120.004,80.427 120.561,80.539 120.672 C 80.650 120.783,81.029 120.318,81.381 119.637 C 82.159 118.133,81.944 118.015,81.014 119.435 M318.800 119.736 C 318.800 120.038,321.186 124.177,321.193 123.887 C 321.203 123.447,319.229 119.600,318.993 119.600 C 318.887 119.600,318.800 119.661,318.800 119.736 M77.781 125.637 C 77.429 126.318,77.212 126.945,77.299 127.032 C 77.386 127.119,77.756 126.562,78.122 125.795 C 78.944 124.070,78.659 123.938,77.781 125.637 M321.878 125.795 C 322.244 126.562,322.614 127.119,322.701 127.032 C 322.884 126.849,321.670 124.400,321.396 124.400 C 321.295 124.400,321.512 125.028,321.878 125.795 M76.242 128.837 C 75.306 130.713,75.490 131.276,76.447 129.462 C 76.893 128.616,77.174 127.840,77.071 127.737 C 76.968 127.634,76.595 128.129,76.242 128.837 M322.983 128.450 C 323.131 128.972,323.623 130.210,324.077 131.200 C 324.848 132.884,325.077 133.425,326.107 136.000 C 326.327 136.550,326.655 137.360,326.837 137.800 C 327.307 138.940,329.231 144.757,329.648 146.300 C 329.842 147.015,330.192 148.275,330.427 149.100 C 335.397 166.577,336.659 189.718,333.583 207.000 C 333.349 208.320,332.997 210.300,332.802 211.400 C 332.313 214.163,331.174 219.084,330.394 221.800 C 330.141 222.680,329.838 223.897,329.721 224.505 C 329.604 225.113,329.349 225.708,329.154 225.829 C 328.959 225.949,328.800 226.476,328.800 227.000 C 328.800 227.524,328.620 228.064,328.400 228.200 C 328.180 228.336,328.000 228.876,328.000 229.400 C 328.000 229.924,327.820 230.464,327.600 230.600 C 327.380 230.736,327.200 231.251,327.200 231.744 C 327.200 232.237,327.048 232.811,326.861 233.020 C 326.675 233.229,325.919 234.930,325.182 236.800 C 321.928 245.054,313.580 259.998,309.317 265.200 C 309.046 265.530,307.628 267.330,306.165 269.200 C 300.234 276.780,291.381 285.735,284.800 290.812 C 283.810 291.575,282.910 292.299,282.800 292.419 C 282.690 292.540,281.970 293.071,281.200 293.600 C 280.430 294.129,279.710 294.675,279.600 294.813 C 278.688 295.959,266.858 303.174,261.376 305.927 C 256.423 308.414,253.262 309.852,249.900 311.146 C 249.405 311.337,248.550 311.692,248.000 311.934 C 245.653 312.970,237.008 315.593,232.200 316.728 C 222.959 318.909,223.660 318.712,224.954 318.759 C 225.588 318.781,226.758 318.628,227.554 318.417 C 228.349 318.207,230.620 317.649,232.600 317.178 C 236.653 316.213,237.171 316.066,242.200 314.441 C 246.269 313.127,248.632 312.254,251.096 311.156 C 252.028 310.740,252.878 310.400,252.984 310.400 C 253.224 310.400,257.022 308.692,260.200 307.154 C 275.004 299.991,291.902 286.953,302.135 274.800 C 303.710 272.930,305.092 271.310,305.206 271.200 C 307.024 269.445,313.165 260.710,316.595 255.000 C 332.190 229.038,338.708 197.824,334.764 168.000 C 333.729 160.175,331.819 151.497,329.569 144.400 C 327.784 138.768,325.974 134.034,324.156 130.239 C 323.850 129.600,323.600 128.845,323.600 128.562 C 323.600 128.279,323.401 127.924,323.157 127.774 C 322.856 127.587,322.800 127.804,322.983 128.450 M74.832 132.100 C 74.640 132.595,73.906 134.440,73.200 136.200 C 71.638 140.091,70.336 144.069,70.552 144.286 C 70.640 144.373,71.072 143.310,71.512 141.922 C 71.953 140.535,72.693 138.455,73.157 137.300 C 75.267 132.045,75.576 131.200,75.384 131.200 C 75.272 131.200,75.023 131.605,74.832 132.100 M69.444 147.159 C 69.056 148.541,68.834 149.767,68.950 149.883 C 69.066 149.999,69.274 149.578,69.413 148.947 C 69.552 148.316,69.848 147.314,70.073 146.720 C 70.297 146.127,70.406 145.417,70.314 145.143 C 70.223 144.870,69.831 145.777,69.444 147.159 M68.200 151.600 C 68.048 152.291,68.014 152.947,68.124 153.057 C 68.234 153.167,68.448 152.691,68.600 152.000 C 68.752 151.309,68.786 150.653,68.676 150.543 C 68.566 150.433,68.352 150.909,68.200 151.600 M67.649 154.000 C 67.616 154.330,67.489 155.050,67.367 155.600 C 67.175 156.464,67.207 156.503,67.599 155.888 C 67.848 155.497,67.975 154.777,67.881 154.288 C 67.786 153.800,67.682 153.670,67.649 154.000 M66.600 158.800 C 66.446 159.710,66.411 160.544,66.521 160.654 C 66.631 160.764,66.846 160.110,67.000 159.200 C 67.154 158.290,67.189 157.456,67.079 157.346 C 66.969 157.236,66.754 157.890,66.600 158.800 M65.778 163.378 C 65.627 164.181,65.594 164.927,65.704 165.037 C 65.814 165.147,66.027 164.581,66.178 163.778 C 66.328 162.975,66.362 162.228,66.252 162.118 C 66.142 162.008,65.928 162.575,65.778 163.378 M64.985 168.985 C 64.830 170.223,64.793 171.327,64.903 171.437 C 65.013 171.547,65.230 170.623,65.385 169.385 C 65.539 168.146,65.576 167.043,65.466 166.933 C 65.356 166.823,65.139 167.746,64.985 168.985 M64.257 176.859 C 63.932 179.970,63.984 191.954,64.335 194.600 C 64.481 195.700,64.600 191.605,64.600 185.500 C 64.600 179.395,64.581 174.400,64.557 174.400 C 64.533 174.400,64.398 175.506,64.257 176.859 M64.887 200.400 C 64.883 201.170,65.024 202.250,65.200 202.800 C 65.648 204.199,65.648 201.961,65.200 200.200 L 64.895 199.000 64.887 200.400 M384.642 200.235 C 384.509 200.582,384.400 201.581,384.400 202.456 C 384.400 203.330,384.235 204.800,384.032 205.723 C 383.830 206.645,383.458 209.200,383.205 211.400 C 382.952 213.600,382.578 216.255,382.373 217.300 C 381.202 223.270,380.668 225.756,379.991 228.400 C 378.785 233.105,378.292 235.127,378.112 236.105 C 378.000 236.713,377.749 237.308,377.554 237.429 C 377.359 237.549,377.195 238.042,377.190 238.524 C 377.178 239.476,375.511 244.622,375.071 245.062 C 374.922 245.211,374.800 245.592,374.800 245.908 C 374.800 246.634,371.009 256.350,369.715 258.940 C 369.182 260.007,368.828 260.961,368.928 261.061 C 369.028 261.161,369.779 259.838,370.597 258.121 C 372.260 254.633,372.368 254.377,373.593 251.000 C 374.072 249.680,374.630 248.287,374.832 247.905 C 375.034 247.523,375.200 246.859,375.200 246.429 C 375.200 245.999,375.380 245.536,375.600 245.400 C 375.820 245.264,376.000 244.749,376.000 244.256 C 376.000 243.763,376.149 243.189,376.330 242.980 C 376.632 242.634,376.887 241.860,378.110 237.600 C 378.331 236.830,378.646 235.750,378.809 235.200 C 380.533 229.413,382.928 218.168,383.583 212.785 C 384.568 204.699,384.907 202.589,385.239 202.467 C 385.707 202.294,385.710 200.115,385.242 199.826 C 385.045 199.704,384.775 199.888,384.642 200.235 M14.400 201.167 C 14.400 201.845,14.567 202.400,14.771 202.400 C 14.975 202.400,15.255 203.435,15.392 204.700 C 16.609 215.939,19.524 230.056,22.805 240.600 C 23.284 242.140,23.771 243.808,23.886 244.306 C 24.001 244.804,24.254 245.310,24.448 245.430 C 24.641 245.549,24.800 245.999,24.800 246.429 C 24.800 246.859,24.959 247.523,25.153 247.905 C 25.348 248.287,25.729 249.140,26.000 249.800 C 26.271 250.460,26.652 251.313,26.847 251.695 C 27.041 252.077,27.200 252.664,27.200 253.000 C 27.200 253.336,27.374 253.923,27.587 254.305 C 28.246 255.486,32.365 264.255,32.805 265.414 C 33.035 266.017,33.311 266.422,33.419 266.314 C 33.527 266.206,32.696 264.156,31.573 261.759 C 29.173 256.640,26.739 250.644,25.345 246.417 C 24.798 244.757,24.182 243.087,23.975 242.705 C 23.769 242.323,23.600 241.659,23.600 241.229 C 23.600 240.799,23.420 240.336,23.200 240.200 C 22.980 240.064,22.800 239.582,22.800 239.129 C 22.800 238.676,22.453 237.201,22.028 235.853 C 20.150 229.888,17.972 219.763,16.854 211.800 C 16.386 208.469,15.631 202.592,15.496 201.231 C 15.349 199.747,14.400 199.691,14.400 201.167 M65.668 206.200 C 65.662 206.860,65.811 207.760,66.000 208.200 C 66.470 209.294,66.470 207.467,66.000 206.000 C 65.688 205.025,65.679 205.030,65.668 206.200 M66.487 210.600 C 66.491 211.040,66.632 211.940,66.800 212.600 C 67.074 213.678,67.106 213.698,67.113 212.800 C 67.117 212.250,66.976 211.350,66.800 210.800 C 66.549 210.016,66.481 209.973,66.487 210.600 M67.256 214.600 C 67.256 215.040,67.411 215.760,67.600 216.200 L 67.944 217.000 67.944 216.200 C 67.944 215.760,67.789 215.040,67.600 214.600 L 67.256 213.800 67.256 214.600 M68.034 218.000 C 68.046 218.330,68.211 218.960,68.400 219.400 L 68.744 220.200 68.766 219.400 C 68.778 218.960,68.613 218.330,68.400 218.000 C 68.055 217.467,68.015 217.467,68.034 218.000 M69.044 221.800 C 69.373 223.271,69.602 223.590,69.594 222.567 C 69.591 222.145,69.405 221.530,69.182 221.200 C 68.885 220.762,68.848 220.924,69.044 221.800 M69.835 224.601 C 70.294 226.435,72.649 233.183,72.929 233.462 C 73.219 233.752,72.917 232.727,71.201 227.600 C 69.925 223.788,69.274 222.359,69.835 224.601 M74.800 238.272 C 74.800 238.769,75.991 241.200,76.235 241.200 C 76.423 241.200,75.300 238.367,74.987 238.054 C 74.884 237.951,74.800 238.049,74.800 238.272 M76.400 241.782 C 76.400 242.325,80.469 250.396,80.867 250.641 C 81.074 250.769,80.224 248.833,78.976 246.337 C 76.646 241.676,76.400 241.240,76.400 241.782 M81.209 251.500 C 81.214 251.665,81.585 252.250,82.033 252.800 L 82.848 253.800 82.214 252.500 C 81.611 251.265,81.189 250.845,81.209 251.500 M82.809 254.300 C 82.814 254.465,83.185 255.050,83.633 255.600 L 84.448 256.600 83.814 255.300 C 83.211 254.065,82.789 253.645,82.809 254.300 M85.067 258.006 C 85.459 258.670,86.198 259.705,86.710 260.306 C 87.221 260.908,86.975 260.365,86.163 259.100 C 84.624 256.703,83.828 255.907,85.067 258.006 M89.056 263.700 C 90.720 265.992,94.457 270.880,94.791 271.200 C 94.906 271.310,95.988 272.570,97.195 274.000 C 108.624 287.539,123.661 299.098,141.200 307.826 C 148.401 311.409,159.716 315.361,169.200 317.605 C 169.970 317.788,171.341 318.131,172.246 318.368 C 173.152 318.606,174.412 318.784,175.046 318.764 L 176.200 318.728 175.000 318.414 C 174.340 318.242,172.000 317.704,169.800 317.219 C 167.600 316.735,165.350 316.193,164.800 316.016 C 164.250 315.838,162.990 315.466,162.000 315.190 C 158.627 314.247,153.004 312.344,151.304 311.571 C 150.372 311.147,149.424 310.800,149.199 310.800 C 148.974 310.800,148.477 310.638,148.095 310.439 C 147.713 310.240,144.700 308.787,141.400 307.210 C 133.433 303.402,125.863 298.901,120.000 294.486 C 119.010 293.740,117.676 292.741,117.037 292.265 C 116.397 291.789,115.672 291.220,115.427 291.000 C 115.182 290.780,113.815 289.616,112.390 288.413 C 103.753 281.121,95.417 271.941,88.812 262.446 C 88.488 261.981,88.068 261.600,87.878 261.600 C 87.687 261.600,88.218 262.545,89.056 263.700 M367.855 263.055 C 367.476 263.849,367.253 264.586,367.359 264.693 C 367.466 264.799,367.836 264.209,368.182 263.382 C 368.998 261.429,368.749 261.180,367.855 263.055 M33.670 267.100 C 34.489 268.894,37.255 274.000,37.408 274.000 C 37.518 274.000,36.794 272.380,35.800 270.400 C 34.806 268.420,33.889 266.800,33.763 266.800 C 33.637 266.800,33.595 266.935,33.670 267.100 M362.214 274.235 C 361.841 274.804,361.627 275.361,361.739 275.472 C 361.850 275.583,362.229 275.118,362.581 274.437 C 363.359 272.933,363.144 272.815,362.214 274.235 M37.609 274.700 C 37.614 274.865,37.985 275.450,38.433 276.000 L 39.248 277.000 38.614 275.700 C 38.011 274.465,37.589 274.045,37.609 274.700 M360.614 277.035 C 360.241 277.604,360.005 278.138,360.089 278.222 C 360.173 278.307,360.558 277.841,360.944 277.188 C 361.806 275.728,361.548 275.609,360.614 277.035 M40.831 280.300 C 41.848 282.000,42.400 282.694,42.400 282.271 C 42.400 281.906,40.355 278.800,40.114 278.800 C 40.016 278.800,40.338 279.475,40.831 280.300 M358.175 281.300 C 357.370 282.675,355.199 286.017,353.350 288.727 C 351.501 291.437,350.178 293.537,350.409 293.394 C 351.270 292.862,360.353 278.800,359.836 278.800 C 359.727 278.800,358.980 279.925,358.175 281.300 M43.457 284.500 C 45.496 287.749,48.389 291.946,48.739 292.162 C 48.933 292.282,47.766 290.396,46.146 287.971 C 44.526 285.546,43.200 283.391,43.200 283.181 C 43.200 282.972,43.018 282.800,42.795 282.800 C 42.572 282.800,42.870 283.565,43.457 284.500 M50.457 294.700 C 52.016 296.986,56.014 302.000,56.278 302.000 C 56.382 302.000,56.137 301.572,55.733 301.050 C 55.330 300.527,53.755 298.457,52.234 296.450 C 49.242 292.502,48.378 291.651,50.457 294.700 M347.377 297.100 C 345.319 299.673,344.832 300.507,346.385 298.800 C 347.853 297.186,349.337 295.200,349.075 295.200 C 348.977 295.200,348.212 296.055,347.377 297.100 M57.471 303.754 C 64.031 311.618,72.314 320.270,77.622 324.800 C 79.040 326.010,80.680 327.421,81.267 327.937 C 87.923 333.779,107.644 347.137,106.226 344.843 C 106.076 344.599,105.794 344.400,105.599 344.400 C 104.731 344.400,92.327 335.975,85.800 330.953 C 76.822 324.044,64.003 311.499,57.742 303.496 C 57.271 302.893,56.763 302.400,56.613 302.400 C 56.464 302.400,56.850 303.009,57.471 303.754 M342.545 303.100 C 339.497 307.875,324.679 322.661,315.970 329.618 C 309.210 335.019,295.510 344.400,294.384 344.400 C 294.199 344.400,293.924 344.599,293.774 344.843 C 293.233 345.718,295.394 344.688,298.813 342.442 C 300.690 341.209,302.511 340.020,302.859 339.800 C 308.093 336.497,317.324 329.331,323.985 323.400 C 327.274 320.471,335.815 311.828,337.418 309.805 C 338.288 308.708,339.713 306.998,340.584 306.005 C 341.456 305.012,342.522 303.795,342.954 303.300 C 343.386 302.805,343.571 302.400,343.366 302.400 C 343.161 302.400,342.791 302.715,342.545 303.100 M177.400 319.214 C 178.719 319.579,183.171 320.158,189.514 320.790 C 198.523 321.687,211.705 321.102,222.400 319.330 C 225.730 318.778,222.436 318.805,218.323 319.363 C 206.419 320.980,193.183 320.985,181.800 319.379 C 177.360 318.753,175.479 318.682,177.400 319.214 M106.800 345.390 C 106.800 345.494,107.385 345.865,108.100 346.214 L 109.400 346.848 108.400 346.033 C 107.437 345.248,106.800 344.992,106.800 345.390 M291.300 346.226 C 290.365 346.787,289.600 347.340,289.600 347.455 C 289.600 347.671,292.299 346.138,292.980 345.536 C 293.667 344.928,293.027 345.191,291.300 346.226 M109.600 346.990 C 109.600 347.094,110.185 347.465,110.900 347.814 L 112.200 348.448 111.200 347.633 C 110.237 346.848,109.600 346.592,109.600 346.990 M281.800 351.234 C 280.700 351.865,279.941 352.386,280.113 352.391 C 280.550 352.404,284.400 350.430,284.400 350.193 C 284.400 349.842,283.822 350.073,281.800 351.234 M118.800 351.783 C 118.800 352.008,123.082 354.008,123.512 353.984 C 123.670 353.975,123.273 353.682,122.628 353.334 C 120.957 352.429,118.800 351.555,118.800 351.783 M278.200 352.964 C 277.540 353.257,275.830 354.029,274.400 354.680 C 272.970 355.330,270.720 356.281,269.400 356.793 C 268.080 357.306,266.820 357.890,266.600 358.091 C 266.380 358.292,267.190 358.066,268.400 357.588 C 269.610 357.110,271.006 356.561,271.501 356.369 C 271.997 356.176,273.257 355.634,274.301 355.164 C 275.346 354.694,276.965 353.965,277.900 353.544 C 278.835 353.124,279.600 352.695,279.600 352.590 C 279.600 352.342,279.601 352.342,278.200 352.964 M124.200 354.306 C 124.664 354.748,131.721 357.766,133.200 358.156 C 134.343 358.457,131.965 357.289,129.000 356.092 C 127.900 355.648,126.280 354.979,125.400 354.605 C 124.520 354.232,123.980 354.097,124.200 354.306 M264.000 358.795 C 263.670 358.986,263.059 359.250,262.643 359.381 C 262.226 359.512,261.978 359.711,262.090 359.823 C 262.203 359.936,263.173 359.672,264.247 359.236 C 265.321 358.800,265.840 358.444,265.400 358.445 C 264.960 358.446,264.330 358.603,264.000 358.795 M136.433 359.346 C 136.525 359.426,137.680 359.894,139.000 360.386 C 140.320 360.877,142.120 361.552,143.000 361.884 C 149.279 364.260,169.209 368.884,172.600 368.752 C 173.472 368.718,173.254 368.605,171.800 368.338 C 161.541 366.455,154.925 364.990,150.400 363.600 C 149.850 363.431,148.590 363.066,147.600 362.789 C 145.049 362.074,143.016 361.406,139.802 360.227 C 137.255 359.292,135.997 358.963,136.433 359.346 M259.780 360.330 C 259.571 360.512,258.590 360.904,257.600 361.201 C 256.610 361.498,255.620 361.842,255.400 361.965 C 254.980 362.201,250.787 363.413,248.400 363.990 C 247.630 364.176,245.830 364.623,244.400 364.983 C 239.518 366.213,237.474 366.636,228.200 368.338 C 226.770 368.601,226.542 368.717,227.400 368.745 C 229.504 368.815,240.866 366.569,247.469 364.778 C 249.191 364.311,251.140 363.783,251.800 363.606 C 254.047 363.002,257.397 361.902,258.644 361.358 C 259.328 361.060,260.318 360.644,260.844 360.433 C 261.708 360.087,261.721 360.048,260.980 360.025 C 260.529 360.011,259.989 360.149,259.780 360.330 M175.600 369.206 C 177.815 369.720,187.859 370.406,192.223 370.340 C 195.323 370.293,194.612 370.208,189.000 369.952 C 185.040 369.771,180.705 369.438,179.367 369.211 C 178.029 368.985,176.319 368.818,175.567 368.840 L 174.200 368.880 175.600 369.206 M220.400 369.237 C 219.410 369.428,215.270 369.741,211.200 369.932 C 205.539 370.198,204.726 370.294,207.741 370.340 C 212.088 370.406,222.601 369.704,224.800 369.201 C 226.867 368.728,222.867 368.761,220.400 369.237 M198.500 370.691 C 199.325 370.778,200.675 370.778,201.500 370.691 C 202.325 370.605,201.650 370.534,200.000 370.534 C 198.350 370.534,197.675 370.605,198.500 370.691 " stroke="none" fill="#fcc735" fill-rule="evenodd"></path><path id="path4" d="M199.300 49.876 C 199.685 49.976,200.315 49.976,200.700 49.876 C 201.085 49.775,200.770 49.693,200.000 49.693 C 199.230 49.693,198.915 49.775,199.300 49.876 M185.200 50.456 C 179.872 51.182,174.402 52.136,174.575 52.308 C 174.673 52.406,176.429 52.209,178.476 51.870 C 182.910 51.136,189.839 50.422,194.000 50.269 C 195.650 50.208,194.930 50.146,192.400 50.130 C 189.870 50.115,186.630 50.261,185.200 50.456 M206.200 50.275 C 210.144 50.415,216.073 51.025,221.528 51.851 C 223.799 52.195,225.738 52.395,225.837 52.296 C 226.000 52.133,222.207 51.519,214.123 50.399 C 212.541 50.179,209.391 50.036,207.123 50.080 C 203.317 50.155,203.246 50.170,206.200 50.275 M171.200 52.821 C 170.770 53.114,171.054 53.154,172.200 52.962 C 174.184 52.630,174.504 52.398,172.967 52.406 C 172.325 52.409,171.530 52.596,171.200 52.821 M227.200 52.800 C 227.750 52.976,228.560 53.126,229.000 53.132 L 229.800 53.144 229.000 52.800 C 228.560 52.611,227.750 52.462,227.200 52.468 L 226.200 52.480 227.200 52.800 M167.800 53.600 L 167.000 53.944 167.800 53.944 C 168.240 53.944,168.960 53.789,169.400 53.600 L 170.200 53.256 169.400 53.256 C 168.960 53.256,168.240 53.411,167.800 53.600 M230.600 53.600 C 231.040 53.789,231.760 53.944,232.200 53.944 L 233.000 53.944 232.200 53.600 C 231.760 53.411,231.040 53.256,230.600 53.256 L 229.800 53.256 230.600 53.600 M164.400 54.400 C 163.867 54.745,163.867 54.788,164.400 54.788 C 164.730 54.788,165.270 54.613,165.600 54.400 C 166.133 54.055,166.133 54.012,165.600 54.012 C 165.270 54.012,164.730 54.187,164.400 54.400 M161.800 55.200 L 161.000 55.544 161.800 55.566 C 162.240 55.578,162.870 55.413,163.200 55.200 C 163.995 54.686,162.996 54.686,161.800 55.200 M237.200 55.200 C 237.530 55.413,238.070 55.588,238.400 55.588 C 238.933 55.588,238.933 55.545,238.400 55.200 C 238.070 54.987,237.530 54.812,237.200 54.812 C 236.667 54.812,236.667 54.855,237.200 55.200 M146.400 60.685 C 145.441 61.039,135.158 66.165,133.400 67.165 C 130.680 68.713,130.847 69.008,133.600 67.517 C 136.846 65.759,141.882 63.217,144.900 61.812 C 146.165 61.223,147.200 60.664,147.200 60.571 C 147.200 60.477,147.155 60.414,147.100 60.432 C 147.045 60.449,146.730 60.563,146.400 60.685 M252.800 60.565 C 252.800 60.809,255.231 62.000,255.728 62.000 C 255.951 62.000,256.049 61.916,255.946 61.813 C 255.633 61.500,252.800 60.377,252.800 60.565 M256.449 62.152 C 256.586 62.306,258.626 63.416,260.982 64.618 C 263.339 65.821,266.106 67.273,267.133 67.844 C 268.443 68.573,268.710 68.645,268.027 68.085 C 267.493 67.646,264.793 66.152,262.027 64.765 C 255.951 61.716,256.141 61.805,256.449 62.152 M128.881 69.772 C 128.156 70.284,127.436 70.839,127.281 71.003 C 126.864 71.447,129.273 70.159,130.200 69.443 C 131.475 68.459,130.337 68.742,128.881 69.772 M269.800 69.443 C 270.756 70.182,272.800 71.285,272.800 71.063 C 272.800 70.823,269.659 68.798,269.309 68.813 C 269.139 68.820,269.360 69.103,269.800 69.443 M125.600 72.020 L 124.600 72.822 125.700 72.347 C 126.305 72.085,126.800 71.720,126.800 71.536 C 126.800 71.079,126.745 71.102,125.600 72.020 M202.400 71.565 C 201.190 71.694,205.600 71.800,212.200 71.800 C 218.800 71.800,223.120 71.685,221.800 71.543 C 218.854 71.228,205.414 71.244,202.400 71.565 M194.400 72.400 L 193.000 72.695 194.600 72.707 C 195.480 72.715,196.650 72.576,197.200 72.400 C 198.569 71.962,196.483 71.962,194.400 72.400 M227.200 72.400 C 227.750 72.576,228.920 72.717,229.800 72.714 L 231.400 72.708 229.800 72.377 C 228.920 72.195,227.750 72.054,227.200 72.063 L 226.200 72.080 227.200 72.400 M189.000 73.200 L 187.800 73.505 189.000 73.525 C 189.660 73.535,190.560 73.389,191.000 73.200 L 191.800 72.856 191.000 72.875 C 190.560 72.886,189.660 73.032,189.000 73.200 M233.400 73.200 C 233.840 73.389,234.740 73.535,235.400 73.525 L 236.600 73.505 235.400 73.200 C 234.740 73.032,233.840 72.886,233.400 72.875 L 232.600 72.856 233.400 73.200 M184.600 74.000 L 183.400 74.305 184.600 74.347 C 185.260 74.369,186.070 74.213,186.400 74.000 C 187.143 73.520,186.487 73.520,184.600 74.000 M238.000 74.005 C 238.330 74.216,239.125 74.391,239.767 74.394 C 241.314 74.402,240.977 74.171,239.000 73.868 C 237.910 73.701,237.591 73.745,238.000 74.005 M117.691 77.562 C 113.298 80.936,108.097 85.498,104.197 89.397 C 100.856 92.738,95.440 98.800,95.797 98.800 C 95.959 98.800,96.732 98.035,97.516 97.100 C 100.202 93.895,111.000 83.359,114.242 80.779 C 116.025 79.361,118.005 77.784,118.642 77.275 C 119.279 76.767,120.295 76.053,120.900 75.689 C 121.784 75.157,122.384 74.386,121.900 74.404 C 121.845 74.406,119.951 75.827,117.691 77.562 M181.000 74.800 C 179.911 75.077,179.893 75.107,180.800 75.125 C 181.350 75.135,182.160 74.989,182.600 74.800 C 183.586 74.376,182.666 74.376,181.000 74.800 M241.800 74.800 C 242.240 74.989,242.960 75.138,243.400 75.132 C 244.043 75.123,244.004 75.057,243.200 74.800 C 241.832 74.362,240.781 74.362,241.800 74.800 M278.007 74.675 C 278.011 74.854,278.866 75.577,279.907 76.283 C 280.948 76.989,282.340 77.949,283.000 78.418 C 284.098 79.198,284.087 79.169,282.874 78.084 C 280.951 76.365,277.999 74.297,278.007 74.675 M177.600 75.600 L 176.600 75.920 177.600 75.954 C 178.150 75.973,178.870 75.813,179.200 75.600 C 179.964 75.106,179.142 75.106,177.600 75.600 M245.200 75.582 C 245.530 75.805,246.145 75.991,246.567 75.994 C 247.590 76.002,247.271 75.773,245.800 75.444 C 244.924 75.248,244.762 75.285,245.200 75.582 M175.000 76.400 C 174.229 76.731,174.231 76.745,175.076 76.772 C 175.558 76.787,176.064 76.620,176.200 76.400 C 176.492 75.927,176.101 75.927,175.000 76.400 M248.000 76.400 C 248.330 76.613,248.960 76.778,249.400 76.766 L 250.200 76.744 249.400 76.400 C 248.204 75.886,247.205 75.886,248.000 76.400 M169.897 77.884 C 168.190 78.458,166.866 78.999,166.954 79.088 C 167.117 79.250,173.247 77.286,173.563 76.971 C 173.912 76.622,172.917 76.870,169.897 77.884 M250.800 77.182 C 251.130 77.405,251.745 77.591,252.167 77.594 C 253.190 77.602,252.871 77.373,251.400 77.044 C 250.524 76.848,250.362 76.885,250.800 77.182 M253.400 78.000 C 253.536 78.220,254.042 78.387,254.524 78.372 C 255.369 78.345,255.371 78.331,254.600 78.000 C 253.499 77.527,253.108 77.527,253.400 78.000 M255.728 78.662 C 255.872 78.806,257.460 79.427,259.256 80.042 C 261.052 80.658,262.359 81.012,262.161 80.830 C 261.509 80.231,255.156 78.089,255.728 78.662 M163.801 80.054 C 161.621 80.938,160.806 81.483,162.398 80.992 C 163.869 80.538,166.664 79.258,166.200 79.250 C 165.980 79.247,164.901 79.608,163.801 80.054 M284.412 79.438 C 284.419 79.637,285.184 80.382,286.112 81.093 C 290.483 84.440,298.969 92.831,303.413 98.200 C 304.506 99.520,305.496 100.690,305.612 100.800 C 305.989 101.155,309.606 106.082,309.979 106.748 C 310.178 107.103,310.435 107.299,310.551 107.183 C 311.507 106.227,297.414 90.398,289.200 83.203 C 284.651 79.217,284.398 79.019,284.412 79.438 M159.300 81.834 C 158.585 82.146,158.000 82.494,158.000 82.607 C 158.000 82.815,160.806 81.727,161.146 81.387 C 161.486 81.047,160.620 81.257,159.300 81.834 M266.833 82.954 C 267.265 83.354,276.150 87.630,275.800 87.269 C 275.367 86.823,267.392 82.800,266.941 82.800 C 266.790 82.800,266.742 82.869,266.833 82.954 M152.300 85.025 C 150.815 85.787,149.600 86.501,149.600 86.611 C 149.600 86.789,155.160 84.127,155.567 83.753 C 156.114 83.251,154.637 83.825,152.300 85.025 M145.200 88.818 C 144.210 89.460,143.512 89.988,143.650 89.992 C 143.995 90.003,147.600 87.971,147.600 87.766 C 147.600 87.405,146.921 87.702,145.200 88.818 M279.600 89.314 C 279.600 89.555,282.706 91.600,283.071 91.600 C 283.230 91.600,283.189 91.449,282.980 91.264 C 282.352 90.708,279.600 89.121,279.600 89.314 M139.487 92.231 C 138.229 93.018,137.200 93.749,137.200 93.856 C 137.200 94.115,139.936 92.564,141.200 91.589 C 142.778 90.372,141.983 90.670,139.487 92.231 M286.793 93.870 C 300.531 103.981,308.074 110.753,315.558 119.700 C 317.169 121.625,318.568 123.200,318.669 123.200 C 319.235 123.200,312.990 116.170,307.809 110.976 C 301.026 104.175,291.803 96.575,287.000 93.826 C 285.812 93.146,285.810 93.147,286.793 93.870 M134.600 95.526 C 132.738 96.842,129.249 99.410,127.435 100.800 C 127.004 101.130,125.830 102.181,124.826 103.136 C 123.822 104.091,124.890 103.359,127.200 101.509 C 129.510 99.660,132.570 97.366,134.000 96.411 C 137.088 94.351,136.976 94.437,136.767 94.256 C 136.675 94.176,135.700 94.748,134.600 95.526 M93.400 101.500 C 91.152 104.354,87.991 108.979,89.264 107.551 C 89.779 106.974,91.100 105.288,92.200 103.803 C 93.300 102.318,94.530 100.675,94.933 100.152 C 95.337 99.628,95.564 99.200,95.439 99.200 C 95.314 99.200,94.396 100.235,93.400 101.500 M120.261 107.061 C 118.974 108.268,117.985 109.318,118.061 109.394 C 118.138 109.471,119.253 108.546,120.539 107.339 C 121.826 106.132,122.815 105.082,122.739 105.006 C 122.662 104.929,121.547 105.854,120.261 107.061 M115.142 111.909 C 112.687 114.454,107.703 120.159,106.850 121.400 C 106.283 122.225,106.492 122.004,111.391 116.600 C 112.987 114.840,115.051 112.620,115.979 111.666 C 116.906 110.712,117.595 109.861,117.509 109.775 C 117.423 109.689,116.358 110.650,115.142 111.909 M85.025 113.418 C 83.027 116.467,78.455 124.813,77.402 127.333 C 76.233 130.132,77.149 128.779,79.186 124.700 C 80.312 122.445,81.540 120.060,81.916 119.400 C 83.287 116.994,84.946 114.179,85.512 113.300 C 85.831 112.805,86.002 112.400,85.892 112.400 C 85.782 112.400,85.392 112.858,85.025 113.418 M314.094 112.600 C 314.210 112.820,315.063 114.245,315.989 115.767 C 319.856 122.120,322.952 128.786,320.397 125.260 C 319.736 124.347,319.095 123.600,318.973 123.600 C 318.702 123.600,320.798 126.544,322.247 128.200 C 324.345 130.598,320.811 122.976,316.682 116.200 C 315.069 113.552,313.292 111.081,314.094 112.600 M105.155 123.500 C 103.810 124.987,103.060 126.000,103.303 126.000 C 103.413 126.000,104.167 125.190,104.979 124.200 C 106.606 122.214,106.717 121.772,105.155 123.500 M101.496 128.300 C 99.575 130.959,97.009 134.809,96.077 136.431 C 92.279 143.038,91.526 144.460,91.721 144.654 C 91.844 144.777,92.317 144.095,92.772 143.139 C 93.228 142.183,94.144 140.500,94.809 139.400 C 95.474 138.300,96.137 137.130,96.282 136.800 C 96.427 136.470,98.042 133.995,99.871 131.300 C 103.160 126.452,104.147 124.629,101.496 128.300 M75.855 130.655 C 75.476 131.449,75.248 132.181,75.349 132.282 C 75.449 132.383,75.841 131.814,76.218 131.018 C 76.596 130.222,76.823 129.490,76.724 129.391 C 76.625 129.291,76.233 129.860,75.855 130.655 M72.200 139.600 C 72.050 140.073,72.017 140.550,72.127 140.660 C 72.237 140.770,72.450 140.473,72.600 140.000 C 72.750 139.527,72.783 139.050,72.673 138.940 C 72.563 138.830,72.350 139.127,72.200 139.600 M71.400 142.000 C 71.250 142.473,71.217 142.950,71.327 143.060 C 71.437 143.170,71.650 142.873,71.800 142.400 C 71.950 141.927,71.983 141.450,71.873 141.340 C 71.763 141.230,71.550 141.527,71.400 142.000 M70.673 144.153 C 70.523 144.545,70.411 145.166,70.425 145.533 C 70.442 145.975,70.581 145.874,70.837 145.234 C 71.049 144.703,71.161 144.082,71.085 143.854 C 71.009 143.627,70.824 143.761,70.673 144.153 M90.200 147.200 C 89.620 148.344,89.228 149.361,89.327 149.460 C 89.427 149.560,89.977 148.700,90.550 147.550 C 91.123 146.400,91.516 145.383,91.423 145.290 C 91.330 145.197,90.780 146.056,90.200 147.200 M69.873 146.953 C 69.723 147.345,69.611 147.966,69.625 148.333 C 69.642 148.775,69.781 148.674,70.037 148.034 C 70.249 147.503,70.361 146.882,70.285 146.654 C 70.209 146.427,70.024 146.561,69.873 146.953 M68.178 153.378 C 68.027 154.181,67.994 154.927,68.104 155.037 C 68.214 155.147,68.427 154.581,68.578 153.778 C 68.728 152.975,68.762 152.228,68.652 152.118 C 68.542 152.008,68.328 152.575,68.178 153.378 M67.454 156.453 C 66.650 160.561,65.728 166.032,65.136 170.200 C 64.449 175.037,64.441 195.875,65.123 200.200 C 65.401 201.960,65.818 204.660,66.048 206.200 C 66.492 209.160,67.008 211.958,67.598 214.600 C 67.794 215.480,68.064 216.716,68.197 217.347 C 68.330 217.978,68.533 218.400,68.648 218.286 C 68.763 218.171,68.576 216.934,68.234 215.538 C 66.643 209.048,65.784 202.810,65.188 193.400 C 64.441 181.621,65.154 170.775,67.458 158.848 C 67.772 157.224,67.941 155.808,67.834 155.700 C 67.727 155.593,67.556 155.932,67.454 156.453 M83.800 162.400 C 83.650 162.873,83.617 163.350,83.727 163.460 C 83.837 163.570,84.050 163.273,84.200 162.800 C 84.350 162.327,84.383 161.850,84.273 161.740 C 84.163 161.630,83.950 161.927,83.800 162.400 M82.587 166.187 C 82.201 167.414,81.975 168.508,82.084 168.618 C 82.194 168.727,82.576 167.789,82.933 166.533 C 83.778 163.565,83.499 163.286,82.587 166.187 M81.473 169.753 C 81.323 170.145,81.211 170.766,81.225 171.133 C 81.242 171.575,81.381 171.474,81.637 170.834 C 81.849 170.303,81.961 169.682,81.885 169.454 C 81.809 169.227,81.624 169.361,81.473 169.753 M80.000 175.800 C 79.506 177.909,79.197 179.730,79.313 179.846 C 79.429 179.962,79.641 179.459,79.785 178.729 C 79.928 177.998,80.318 176.258,80.651 174.862 C 80.984 173.466,81.176 172.243,81.078 172.144 C 80.979 172.046,80.494 173.691,80.000 175.800 M78.864 181.050 C 78.829 181.518,78.705 182.508,78.589 183.250 C 78.396 184.486,78.415 184.517,78.808 183.614 C 79.045 183.072,79.168 182.082,79.083 181.414 C 78.991 180.697,78.902 180.548,78.864 181.050 M77.870 186.957 C 77.711 188.253,77.661 189.394,77.760 189.493 C 78.026 189.759,78.503 186.218,78.319 185.347 C 78.232 184.936,78.030 185.660,77.870 186.957 M77.068 193.755 C 76.908 195.930,76.854 197.788,76.950 197.883 C 77.197 198.130,77.717 191.486,77.522 190.565 C 77.433 190.144,77.229 191.580,77.068 193.755 M76.565 206.600 C 76.566 210.560,76.626 212.126,76.698 210.080 C 76.771 208.034,76.771 204.794,76.698 202.880 C 76.624 200.966,76.565 202.640,76.565 206.600 M13.693 214.800 C 13.693 215.570,13.775 215.885,13.876 215.500 C 13.976 215.115,13.976 214.485,13.876 214.100 C 13.775 213.715,13.693 214.030,13.693 214.800 M76.994 218.800 C 77.283 222.506,78.224 229.259,78.805 231.800 C 79.253 233.758,79.010 231.037,78.395 227.200 C 78.201 225.990,77.842 222.934,77.597 220.409 C 77.078 215.061,76.605 213.797,76.994 218.800 M68.834 219.800 C 68.822 220.240,68.987 220.870,69.200 221.200 C 69.714 221.995,69.714 220.996,69.200 219.800 L 68.856 219.000 68.834 219.800 M69.634 222.600 C 69.622 223.040,69.787 223.670,70.000 224.000 C 70.514 224.795,70.514 223.796,70.000 222.600 L 69.656 221.800 69.634 222.600 M70.456 225.200 C 70.456 225.530,70.611 226.160,70.800 226.600 C 71.017 227.104,71.144 227.178,71.144 226.800 C 71.144 226.470,70.989 225.840,70.800 225.400 C 70.583 224.896,70.456 224.822,70.456 225.200 M79.631 235.600 C 79.584 236.452,80.922 241.838,81.067 241.380 C 81.132 241.171,80.844 239.650,80.425 238.000 C 80.006 236.350,79.649 235.270,79.631 235.600 M81.240 242.325 C 81.189 242.994,82.452 246.882,82.654 246.679 C 82.738 246.595,82.463 245.463,82.043 244.164 C 81.623 242.864,81.262 242.036,81.240 242.325 M82.834 247.800 C 82.822 248.240,82.987 248.870,83.200 249.200 C 83.714 249.995,83.714 248.996,83.200 247.800 L 82.856 247.000 82.834 247.800 M80.549 249.500 C 83.040 254.309,88.245 262.489,87.867 261.000 C 87.325 258.869,87.110 258.400,86.673 258.397 C 86.144 258.395,85.456 257.341,81.644 250.700 C 80.302 248.361,79.510 247.494,80.549 249.500 M84.412 252.400 C 84.412 252.730,84.587 253.270,84.800 253.600 C 85.145 254.133,85.188 254.133,85.188 253.600 C 85.188 253.270,85.013 252.730,84.800 252.400 C 84.455 251.867,84.412 251.867,84.412 252.400 M85.453 255.200 C 85.881 256.886,86.412 258.121,86.620 257.914 C 86.728 257.805,86.453 256.925,86.008 255.958 C 85.563 254.991,85.313 254.650,85.453 255.200 M29.097 271.800 C 29.017 279.280,28.813 286.030,28.643 286.800 C 28.386 287.963,28.424 288.112,28.867 287.681 C 29.282 287.276,29.444 284.143,29.600 273.481 C 29.764 262.231,29.887 259.995,30.290 260.900 C 30.560 261.505,30.875 262.000,30.990 262.000 C 31.401 262.000,31.183 261.379,30.219 259.800 L 29.243 258.200 29.097 271.800 M370.100 259.187 C 369.497 260.155,369.459 260.534,370.000 260.200 C 370.263 260.037,370.402 264.364,370.405 272.876 C 370.411 285.610,370.539 287.808,371.252 287.368 C 371.451 287.245,371.475 286.932,371.307 286.672 C 371.138 286.413,370.910 279.942,370.800 272.292 C 370.637 260.946,370.508 258.532,370.100 259.187 M31.234 262.600 C 31.234 262.820,31.578 263.630,32.000 264.400 C 32.422 265.170,32.766 265.620,32.766 265.400 C 32.766 265.180,32.422 264.370,32.000 263.600 C 31.578 262.830,31.234 262.380,31.234 262.600 M367.293 265.119 C 366.591 266.593,364.950 269.825,363.647 272.300 C 362.343 274.775,361.397 276.800,361.544 276.800 C 361.690 276.800,361.988 276.442,362.205 276.005 C 362.422 275.568,364.022 272.415,365.760 268.998 C 367.497 265.581,368.841 262.707,368.745 262.612 C 368.649 262.516,367.996 263.644,367.293 265.119 M32.800 266.130 C 32.800 266.445,37.381 275.106,38.053 276.062 C 38.464 276.646,38.804 277.276,38.809 277.462 C 38.814 277.648,39.191 278.250,39.648 278.800 C 40.505 279.833,39.927 278.627,37.730 274.800 C 37.288 274.030,36.073 271.735,35.030 269.700 C 33.398 266.517,32.800 265.560,32.800 266.130 M360.219 278.363 C 359.867 279.043,359.719 279.599,359.890 279.597 C 360.255 279.593,361.269 277.535,361.025 277.292 C 360.934 277.200,360.571 277.682,360.219 278.363 M40.400 280.206 C 40.400 280.524,43.288 284.800,43.503 284.800 C 43.607 284.800,43.378 284.321,42.994 283.735 C 42.610 283.149,41.941 282.069,41.508 281.335 C 40.776 280.093,40.400 279.711,40.400 280.206 M358.586 281.300 L 357.952 282.600 358.767 281.600 C 359.552 280.637,359.808 280.000,359.410 280.000 C 359.306 280.000,358.935 280.585,358.586 281.300 M353.474 289.097 C 349.611 294.782,348.588 296.175,345.123 300.476 C 343.405 302.607,342.000 304.480,342.000 304.638 C 342.000 304.998,343.526 303.257,345.713 300.400 C 346.640 299.190,347.494 298.110,347.612 298.000 C 347.904 297.726,353.558 289.852,355.171 287.472 C 355.889 286.411,356.398 285.465,356.302 285.368 C 356.205 285.272,354.933 286.950,353.474 289.097 M44.422 286.600 C 44.427 287.129,45.542 288.591,45.769 288.365 C 45.866 288.268,45.602 287.741,45.182 287.194 C 44.761 286.647,44.420 286.380,44.422 286.600 M46.022 289.000 C 46.027 289.529,47.142 290.991,47.369 290.765 C 47.466 290.668,47.202 290.141,46.782 289.594 C 46.361 289.047,46.020 288.780,46.022 289.000 M47.849 291.668 C 48.351 292.495,52.130 297.761,52.393 298.000 C 52.695 298.274,54.390 300.379,55.600 301.982 C 57.078 303.939,58.000 304.960,58.000 304.637 C 58.000 304.480,56.593 302.607,54.873 300.476 C 53.153 298.344,50.994 295.486,50.075 294.125 C 48.616 291.965,46.837 290.000,47.849 291.668 M60.063 307.293 C 61.018 308.444,62.295 309.911,62.900 310.552 L 64.000 311.719 64.000 325.859 C 64.000 338.197,63.923 340.000,63.397 340.000 C 62.892 340.000,62.875 340.132,63.297 340.809 C 64.192 342.248,64.318 340.458,64.360 325.720 L 64.400 311.639 61.544 308.420 C 58.334 304.800,57.411 304.098,60.063 307.293 M340.368 306.300 C 337.886 309.080,337.485 309.599,337.830 309.578 C 338.034 309.565,338.974 308.575,339.919 307.378 C 341.751 305.056,341.990 304.482,340.368 306.300 M336.014 311.574 C 335.746 312.074,335.632 317.203,335.690 326.074 L 335.780 339.800 335.990 325.800 C 336.105 318.100,336.346 311.575,336.524 311.300 C 336.702 311.025,336.753 310.800,336.638 310.800 C 336.522 310.800,336.242 311.148,336.014 311.574 M50.051 325.100 C 50.708 325.937,51.285 326.386,51.718 326.394 C 51.893 326.397,51.586 325.950,51.036 325.400 C 49.892 324.256,49.231 324.054,50.051 325.100 M348.860 325.451 C 348.343 326.002,348.023 326.556,348.150 326.683 C 348.390 326.923,349.963 325.224,349.987 324.700 C 350.006 324.269,349.907 324.335,348.860 325.451 M342.900 333.023 C 342.311 333.663,342.262 334.000,342.757 334.000 C 343.098 334.000,343.737 332.796,343.509 332.583 C 343.449 332.527,343.175 332.725,342.900 333.023 M106.243 345.490 C 106.109 345.624,106.000 352.183,106.000 360.067 C 106.000 369.888,105.867 374.400,105.576 374.400 C 105.343 374.400,105.276 374.599,105.426 374.843 C 106.192 376.081,106.388 373.033,106.394 359.851 C 106.399 347.041,106.465 345.556,107.010 346.008 C 107.345 346.286,107.697 346.437,107.791 346.342 C 107.886 346.247,107.631 345.962,107.225 345.708 C 106.819 345.455,106.377 345.356,106.243 345.490 M291.208 346.623 C 290.003 347.371,286.448 349.277,283.310 350.859 C 280.171 352.442,277.681 353.814,277.776 353.909 C 277.982 354.116,290.859 347.497,292.436 346.375 C 293.247 345.797,293.584 345.725,293.734 346.097 C 293.857 346.401,293.949 346.323,293.968 345.900 C 294.010 344.969,293.776 345.031,291.208 346.623 M108.403 346.714 C 108.405 346.871,108.810 347.200,109.303 347.444 C 109.796 347.688,112.511 349.097,115.335 350.576 C 118.159 352.054,120.556 353.177,120.662 353.071 C 120.767 352.966,119.357 352.144,117.527 351.245 C 115.697 350.346,112.895 348.894,111.300 348.018 C 109.705 347.143,108.401 346.556,108.403 346.714 M124.800 354.995 C 124.800 355.205,127.535 356.411,127.949 356.383 C 128.270 356.362,125.501 354.839,125.100 354.817 C 124.935 354.808,124.800 354.888,124.800 354.995 M262.200 360.000 C 261.429 360.331,261.431 360.345,262.276 360.372 C 262.758 360.387,263.264 360.220,263.400 360.000 C 263.692 359.527,263.301 359.527,262.200 360.000 M139.830 361.142 C 140.254 361.550,140.667 361.709,140.749 361.496 C 140.902 361.095,140.082 360.417,139.430 360.406 C 139.227 360.403,139.407 360.734,139.830 361.142 M259.900 360.832 C 259.162 361.262,258.767 391.200,259.500 391.200 C 259.665 391.200,259.751 384.480,259.691 376.265 L 259.581 361.331 260.491 360.892 C 260.991 360.651,261.220 360.447,261.000 360.439 C 260.780 360.431,260.285 360.608,259.900 360.832 M182.667 370.267 C 182.520 370.413,182.442 377.118,182.492 385.167 L 182.585 399.800 182.792 385.200 L 183.000 370.600 184.600 370.357 L 186.200 370.114 184.567 370.057 C 183.668 370.026,182.813 370.120,182.667 370.267 M215.592 370.284 L 217.190 370.446 217.302 384.923 L 217.415 399.400 217.407 384.800 L 217.400 370.200 215.697 370.161 L 213.994 370.122 215.592 370.284 M194.093 370.928 C 197.764 371.136,202.848 371.135,206.293 370.928 C 211.755 370.599,211.280 370.572,200.000 370.573 C 188.430 370.573,188.125 370.592,194.093 370.928 M118.400 382.000 C 118.400 382.220,118.670 382.400,119.000 382.400 C 119.330 382.400,119.600 382.220,119.600 382.000 C 119.600 381.780,119.330 381.600,119.000 381.600 C 118.670 381.600,118.400 381.780,118.400 382.000 M184.905 399.887 C 185.514 399.979,186.414 399.977,186.905 399.882 C 187.397 399.787,186.900 399.711,185.800 399.714 C 184.700 399.717,184.297 399.795,184.905 399.887 M213.107 399.890 C 213.826 399.979,214.906 399.977,215.507 399.886 C 216.108 399.795,215.520 399.722,214.200 399.724 C 212.880 399.726,212.388 399.801,213.107 399.890 " stroke="none" fill="#f8af24" fill-rule="evenodd"></path></g></svg>