<?xml version="1.0" encoding="UTF-8"?>
<svg id="Layer_1" data-name="Layer 1" xmlns="http://www.w3.org/2000/svg" xmlns:xlink="http://www.w3.org/1999/xlink" viewBox="0 0 950 950">
  <defs>
    <style>
      .cls-1 {
        fill: url(#linear-gradient-2);
      }

      .cls-2 {
        fill: url(#linear-gradient-5);
      }

      .cls-3 {
        fill: url(#linear-gradient-3);
      }

      .cls-4 {
        fill: url(#linear-gradient);
      }

      .cls-5 {
        fill: url(#linear-gradient-4);
      }
    </style>
    <linearGradient id="linear-gradient" x1="146.46" y1="268.38" x2="258.79" y2="646.34" gradientTransform="translate(0 952) scale(1 -1)" gradientUnits="userSpaceOnUse">
      <stop offset="0" stop-color="#2b57a1"/>
      <stop offset=".32" stop-color="#2d59a3"/>
      <stop offset=".49" stop-color="#305ca6"/>
      <stop offset=".84" stop-color="#3562af"/>
      <stop offset="1" stop-color="#6895e0"/>
    </linearGradient>
    <linearGradient id="linear-gradient-2" x1="183.45" y1="257.39" x2="295.78" y2="635.35" xlink:href="#linear-gradient"/>
    <linearGradient id="linear-gradient-3" x1="434.13" y1="343.12" x2="436.77" y2="611.39" gradientTransform="translate(0 952) scale(1 -1)" gradientUnits="userSpaceOnUse">
      <stop offset="0" stop-color="#2b57a1"/>
      <stop offset=".32" stop-color="#2d59a3"/>
      <stop offset=".49" stop-color="#305ca6"/>
      <stop offset=".94" stop-color="#6895e0"/>
    </linearGradient>
    <linearGradient id="linear-gradient-4" x1="687.23" y1="303.27" x2="674.25" y2="653.93" xlink:href="#linear-gradient-3"/>
    <linearGradient id="linear-gradient-5" x1="16.1" y1="475.04" x2="933.9" y2="475.04" gradientUnits="userSpaceOnUse">
      <stop offset="0" stop-color="#2b57a1"/>
      <stop offset=".32" stop-color="#2d59a3"/>
      <stop offset=".49" stop-color="#305ca6"/>
      <stop offset=".84" stop-color="#3562af"/>
      <stop offset="1" stop-color="#3562b8"/>
    </linearGradient>
  </defs>
  <path class="cls-4" d="m272.76,361.71c0,17.33-13.71,30.86-30.48,30.86s-30.86-13.71-30.86-30.86,14.1-30.48,31.24-30.48c16.38-.19,30.1,13.9,30.1,30.48Z"/>
  <path class="cls-1" d="m214.28,438.09c0-12.95.38-16.38,3.81-22.67,4-8.19,13.71-13.71,23.81-13.71s19.43,5.52,23.43,13.71c3.43,6.29,3.81,9.33,3.81,22.67v120.95c0,12.95-.38,16.38-3.81,22.67-4,8.19-13.71,13.71-23.43,13.71s-19.62-5.52-23.81-13.71c-3.43-6.29-3.81-9.33-3.81-22.67v-120.95Z"/>
  <path class="cls-3" d="m296.76,432.57c0-19.05,10.86-31.81,27.24-31.81,10.86,0,16.76,3.81,26.48,17.9,15.24-13.9,28.76-19.05,48.19-19.05,13.52,0,27.24,3.43,37.33,9.33,5.52,3.05,8.95,6.29,15.24,14.67,22.1-17.9,36.57-24,57.52-24,38.1,0,66.1,26.86,66.1,63.62v95.62c0,13.14-.38,16.38-3.81,22.86-4.19,8.19-13.9,13.9-23.62,13.9s-19.81-5.52-24-13.9c-3.43-6.29-3.81-9.33-3.81-22.86v-83.43c0-16.76-11.24-28.38-28-28.38s-28.76,11.62-28.76,28.38v83.43c0,13.14-.38,16.38-3.81,22.86-4.19,8.19-13.9,13.9-23.62,13.9s-19.81-5.52-24-13.9c-3.43-6.29-3.81-9.33-3.81-22.86v-78.1c0-21.33-10.48-33.71-28.38-33.71-16.38,0-28.38,12-28.38,28.38v83.43c0,13.14-.38,16.38-3.81,22.86-4.19,8.19-13.9,13.9-23.62,13.9s-19.81-5.52-24-13.9c-3.43-6.29-3.81-9.33-3.81-22.86v-126.29h1.14Z"/>
  <path class="cls-5" d="m752.57,429.9c16.95,17.9,26.1,42.86,26.1,70.29,0,57.33-41.52,100.38-96.76,100.38-26.86,0-53.33-11.43-71.05-30.48-17.33-18.29-26.1-42.48-26.1-71.43,0-55.81,42.29-99.24,97.14-99.24,26.48,0,52.95,11.43,70.67,30.48Zm-110.67,69.52c0,28.19,16.57,48.95,38.67,48.95s40.76-21.33,40.76-48.57-17.71-48.19-40.76-48.19c-21.52.19-38.67,21.14-38.67,47.81Z"/>
  <path class="cls-2" d="m484,924.95c-94.1,0-181.33-28.95-253.52-78.29-34.1,17.9-110.67,21.9-144,17.9-48.57-5.71-99.43-45.9-50.48-85.14,76-60.57,55.62-84.57,55.62-84.57-36.38-64.95-57.14-140-57.14-219.81C34.47,226.66,235.81,25.14,484.19,25.14s449.71,201.33,449.71,449.9-201.52,449.9-449.9,449.9Zm0-833.9c-213.52,0-386.67,173.14-386.67,386.86,0,73.52,20.57,142.29,56.19,200.76,0,0,25.33,65.71-39.62,114.67,40.76,13.71,126.67-11.43,131.05-11.43,65.71,51.81,148.76,82.86,239.05,82.86,213.52,0,386.67-173.14,386.67-386.86S697.52,91.04,484,91.04Z"/>
</svg>